<svg width="918" height="699" viewBox="0 0 918 699" fill="none" xmlns="http://www.w3.org/2000/svg">
<path d="M0.258789 291.638L321.324 99.8594L545.065 474.435L224 666.213L0.258789 291.638Z" fill="#F29D9D" fill-opacity="0.5"/>
<rect x="301.107" width="248.568" height="289.996" transform="rotate(16.2246 301.107 0)" fill="#972EB1" fill-opacity="0.5"/>
<rect x="313.55" y="240.465" width="301.075" height="351.254" transform="rotate(-15 313.55 240.465)" fill="#E3E729" fill-opacity="0.5"/>
<rect x="301.021" y="491.798" width="301.075" height="207.363" transform="rotate(-4.07757 301.021 491.798)" fill="#FF981F" fill-opacity="0.5"/>
<rect x="511.123" width="301.075" height="207.363" transform="rotate(14.5544 511.123 0)" fill="#1DA1CA" fill-opacity="0.5"/>
<rect x="917.399" y="201.274" width="487.049" height="244.669" transform="rotate(116.278 917.399 201.274)" fill="#78AF4D" fill-opacity="0.5"/>
<path d="M428.499 120.5C318.999 100.5 196.499 230 285.999 439C275.832 304 347.799 74.5004 716.999 236.5C643.999 193.334 516.099 136.5 428.499 120.5Z" fill="white"/>
<path d="M464.999 266.5C318.999 266.5 423.999 533 491.499 638C440.499 533 414.199 323 716.999 323C680.499 296.5 610.999 266.5 464.999 266.5Z" fill="white"/>
</svg>
