<svg width="727" height="59" viewBox="0 0 727 59" fill="none" xmlns="http://www.w3.org/2000/svg">
<g filter="url(#filter0_f_435_2662)">
<path d="M11.15 11.7V27.4L23.5 11.7H32.15L20.6 26.15C23.4333 30.8833 25.0667 33.6167 25.5 34.35L32.5 46H23.75L15.6 32.1L11.15 37.05V46H3.6V11.7H11.15ZM60.0078 36.45C60.0078 38.6833 59.4745 40.5667 58.4078 42.1C57.3411 43.6 55.9245 44.7167 54.1578 45.45C52.4245 46.15 50.5245 46.5 48.4578 46.5H47.6578C45.2911 46.5 43.1578 46 41.2578 45C39.3578 44 37.8578 42.5667 36.7578 40.7C35.6911 38.8 35.1578 36.55 35.1578 33.95V32.5C35.1578 29.9333 35.7078 27.7 36.8078 25.8C37.9078 23.9 39.3911 22.45 41.2578 21.45C43.1578 20.45 45.2911 19.95 47.6578 19.95H48.4578C50.5245 19.95 52.4411 20.3833 54.2078 21.25C55.9745 22.0833 57.3911 23.3167 58.4578 24.95C59.5245 26.55 60.0578 28.45 60.0578 30.65V34.45H42.5578V35.65C42.5578 37.3167 43.0411 38.7167 44.0078 39.85C45.0078 40.95 46.3578 41.5 48.0578 41.5C49.5911 41.5 50.7911 41.0833 51.6578 40.25C52.5578 39.3833 53.0078 38.1167 53.0078 36.45H60.0078ZM47.7078 24.95C46.2411 24.95 45.0411 25.4667 44.1078 26.5C43.2078 27.5333 42.6911 28.85 42.5578 30.45H52.6578C52.6578 28.75 52.2578 27.4167 51.4578 26.45C50.6911 25.45 49.4411 24.95 47.7078 24.95ZM89.207 36.45C89.207 38.6833 88.6737 40.5667 87.607 42.1C86.5404 43.6 85.1237 44.7167 83.357 45.45C81.6237 46.15 79.7237 46.5 77.657 46.5H76.857C74.4904 46.5 72.357 46 70.457 45C68.557 44 67.057 42.5667 65.957 40.7C64.8904 38.8 64.357 36.55 64.357 33.95V32.5C64.357 29.9333 64.907 27.7 66.007 25.8C67.107 23.9 68.5904 22.45 70.457 21.45C72.357 20.45 74.4904 19.95 76.857 19.95H77.657C79.7237 19.95 81.6404 20.3833 83.407 21.25C85.1737 22.0833 86.5904 23.3167 87.657 24.95C88.7237 26.55 89.257 28.45 89.257 30.65V34.45H71.757V35.65C71.757 37.3167 72.2404 38.7167 73.207 39.85C74.207 40.95 75.557 41.5 77.257 41.5C78.7904 41.5 79.9904 41.0833 80.857 40.25C81.757 39.3833 82.207 38.1167 82.207 36.45H89.207ZM76.907 24.95C75.4404 24.95 74.2404 25.4667 73.307 26.5C72.407 27.5333 71.8904 28.85 71.757 30.45H81.857C81.857 28.75 81.457 27.4167 80.657 26.45C79.8904 25.45 78.6404 24.95 76.907 24.95ZM101.206 23.65C103.073 21.1833 105.473 19.95 108.406 19.95C110.406 19.95 112.206 20.4333 113.806 21.4C115.406 22.3667 116.673 23.8333 117.606 25.8C118.54 27.7667 119.006 30.2 119.006 33.1V33.65C119.006 36.4167 118.573 38.7667 117.706 40.7C116.84 42.6333 115.656 44.0833 114.156 45.05C112.69 46.0167 111.023 46.5 109.156 46.5C107.556 46.5 106.14 46.1667 104.906 45.5C103.706 44.8333 102.74 44.0167 102.006 43.05V55.05H94.7062V20.45H100.456L101.206 23.65ZM111.606 31C111.606 29.0333 111.156 27.5333 110.256 26.5C109.356 25.4667 108.206 24.95 106.806 24.95C105.406 24.95 104.256 25.4667 103.356 26.5C102.456 27.5333 102.006 29.0333 102.006 31V35.15C102.006 37.0833 102.456 38.5833 103.356 39.65C104.256 40.6833 105.406 41.2 106.806 41.2C108.206 41.2 109.356 40.6833 110.256 39.65C111.156 38.5833 111.606 37.0833 111.606 35.15V31ZM124.393 10H131.793V15.75H124.393V10ZM124.443 46V20.45H131.743V46H124.443ZM144.609 24.2C146.709 21.3667 149.425 19.95 152.759 19.95C155.359 19.95 157.492 20.65 159.159 22.05C160.859 23.45 161.709 25.4833 161.709 28.15V46H154.409V29.75C154.409 28.45 154.025 27.3833 153.259 26.55C152.525 25.6833 151.575 25.25 150.409 25.25C149.109 25.25 147.992 25.75 147.059 26.75C146.125 27.7167 145.659 28.9 145.659 30.3V46H138.359V20.45H143.809L144.609 24.2ZM185.743 40.2C188.076 40.2 189.859 40.8667 191.093 42.2C192.359 43.5 192.993 45.2167 192.993 47.35C192.993 48.8833 192.559 50.2667 191.693 51.5C190.826 52.7333 189.643 53.6833 188.143 54.35C186.676 55.05 185.043 55.4 183.243 55.4H172.693C170.659 55.4 168.943 54.8333 167.543 53.7C166.176 52.6 165.493 51.0667 165.493 49.1C165.493 47.9 165.843 46.8167 166.543 45.85C167.276 44.85 168.193 44.1 169.293 43.6C168.526 43.1 167.943 42.4833 167.543 41.75C167.143 41.0167 166.943 40.2167 166.943 39.35C166.943 38.1167 167.343 37.05 168.143 36.15C168.943 35.2167 169.976 34.55 171.243 34.15C170.109 33.45 169.226 32.5667 168.593 31.5C167.959 30.4 167.643 29.2333 167.643 28C167.643 25.6333 168.559 23.7 170.393 22.2C172.259 20.7 174.976 19.95 178.543 19.95H179.343C180.909 19.95 182.309 20.15 183.543 20.55C184.909 19.75 185.859 18.9333 186.393 18.1C186.926 17.2667 187.226 16.5167 187.293 15.85H192.993C192.993 19.3833 191.226 21.5833 187.693 22.45L187.643 22.6C189.409 24.1 190.293 25.9 190.293 28C190.293 29.4667 189.876 30.8167 189.043 32.05C188.209 33.25 187.026 34.2167 185.493 34.95C183.993 35.65 182.259 36 180.293 36H176.843C175.843 36 175.059 36.2167 174.493 36.65C173.959 37.0833 173.693 37.5667 173.693 38.1C173.693 38.7667 173.943 39.2833 174.443 39.65C174.976 40.0167 175.776 40.2 176.843 40.2H185.743ZM174.643 28C174.643 29.1667 175.059 30.0833 175.893 30.75C176.726 31.3833 177.776 31.7 179.043 31.7C180.343 31.7 181.409 31.3833 182.243 30.75C183.076 30.0833 183.493 29.1667 183.493 28C183.493 26.8333 183.076 25.9333 182.243 25.3C181.409 24.6333 180.343 24.3 179.043 24.3C177.776 24.3 176.726 24.6333 175.893 25.3C175.059 25.9333 174.643 26.8333 174.643 28ZM183.043 50.9C183.909 50.9 184.659 50.6333 185.293 50.1C185.926 49.6 186.243 49 186.243 48.3C186.243 47.6333 185.976 47.0667 185.443 46.6C184.909 46.1667 184.209 45.95 183.343 45.95H174.643C173.909 45.95 173.276 46.1833 172.743 46.65C172.209 47.15 171.943 47.7333 171.943 48.4C171.943 49.0667 172.209 49.65 172.743 50.15C173.276 50.65 173.909 50.9 174.643 50.9H183.043ZM221.642 45.55C220.976 45.8167 220.092 46.0333 218.992 46.2C217.926 46.4 216.976 46.5 216.142 46.5C213.576 46.5 211.642 45.95 210.342 44.85C209.042 43.75 208.392 41.9167 208.392 39.35V25.45H205.592V20.45H208.642L211.192 12.3H215.692V20.45H221.642V25.45H215.692V38.1C215.692 39.4333 215.942 40.3333 216.442 40.8C216.976 41.2667 217.676 41.5 218.542 41.5C218.942 41.5 219.459 41.4333 220.092 41.3C220.726 41.1667 221.242 41.0167 221.642 40.85V45.55ZM233.647 22.95C235.58 20.95 237.947 19.95 240.747 19.95C243.347 19.95 245.48 20.65 247.147 22.05C248.847 23.45 249.697 25.4833 249.697 28.15V46H242.397V29.75C242.397 28.45 242.014 27.3833 241.247 26.55C240.514 25.6833 239.564 25.25 238.397 25.25C237.097 25.25 235.98 25.75 235.047 26.75C234.114 27.7167 233.647 28.9 233.647 30.3V46H226.347V10H233.647V22.95ZM279.93 36.45C279.93 38.6833 279.396 40.5667 278.33 42.1C277.263 43.6 275.846 44.7167 274.08 45.45C272.346 46.15 270.446 46.5 268.38 46.5H267.58C265.213 46.5 263.08 46 261.18 45C259.28 44 257.78 42.5667 256.68 40.7C255.613 38.8 255.08 36.55 255.08 33.95V32.5C255.08 29.9333 255.63 27.7 256.73 25.8C257.83 23.9 259.313 22.45 261.18 21.45C263.08 20.45 265.213 19.95 267.58 19.95H268.38C270.446 19.95 272.363 20.3833 274.13 21.25C275.896 22.0833 277.313 23.3167 278.38 24.95C279.446 26.55 279.98 28.45 279.98 30.65V34.45H262.48V35.65C262.48 37.3167 262.963 38.7167 263.93 39.85C264.93 40.95 266.28 41.5 267.98 41.5C269.513 41.5 270.713 41.0833 271.58 40.25C272.48 39.3833 272.93 38.1167 272.93 36.45H279.93ZM267.63 24.95C266.163 24.95 264.963 25.4667 264.03 26.5C263.13 27.5333 262.613 28.85 262.48 30.45H272.58C272.58 28.75 272.18 27.4167 271.38 26.45C270.613 25.45 269.363 24.95 267.63 24.95ZM290.029 38.2C290.029 39.3667 290.546 40.2167 291.579 40.75C292.612 41.25 293.896 41.5 295.429 41.5C296.762 41.5 297.946 41.3 298.979 40.9C300.046 40.5 300.579 39.8667 300.579 39C300.579 38.0667 300.096 37.4 299.129 37C298.162 36.6 296.662 36.25 294.629 35.95C292.496 35.5833 290.746 35.1833 289.379 34.75C288.012 34.3167 286.829 33.5667 285.829 32.5C284.862 31.4333 284.379 29.95 284.379 28.05C284.379 26.3167 284.879 24.85 285.879 23.65C286.912 22.4167 288.262 21.5 289.929 20.9C291.629 20.2667 293.479 19.95 295.479 19.95H296.479C298.246 19.95 299.912 20.25 301.479 20.85C303.079 21.4167 304.362 22.2333 305.329 23.3C306.296 24.3333 306.779 25.5167 306.779 26.85C306.779 27.1167 306.762 27.3667 306.729 27.6C306.696 27.8 306.679 27.9167 306.679 27.95H300.279C300.279 25.95 298.746 24.95 295.679 24.95C294.279 24.95 293.146 25.15 292.279 25.55C291.446 25.95 291.029 26.5 291.029 27.2C291.029 28.0333 291.479 28.6167 292.379 28.95C293.312 29.2833 294.762 29.6 296.729 29.9C298.962 30.2667 300.762 30.6667 302.129 31.1C303.529 31.5 304.746 32.25 305.779 33.35C306.812 34.4167 307.329 35.9333 307.329 37.9C307.329 40.9333 306.262 43.1333 304.129 44.5C301.996 45.8333 299.279 46.5 295.979 46.5H294.329C292.262 46.5 290.412 46.1833 288.779 45.55C287.146 44.9167 285.862 44.0167 284.929 42.85C284.029 41.6833 283.579 40.35 283.579 38.85L283.629 37.85H290.029V38.2ZM336.082 36.45C336.082 38.6833 335.549 40.5667 334.482 42.1C333.415 43.6 331.999 44.7167 330.232 45.45C328.499 46.15 326.599 46.5 324.532 46.5H323.732C321.365 46.5 319.232 46 317.332 45C315.432 44 313.932 42.5667 312.832 40.7C311.765 38.8 311.232 36.55 311.232 33.95V32.5C311.232 29.9333 311.782 27.7 312.882 25.8C313.982 23.9 315.465 22.45 317.332 21.45C319.232 20.45 321.365 19.95 323.732 19.95H324.532C326.599 19.95 328.515 20.3833 330.282 21.25C332.049 22.0833 333.465 23.3167 334.532 24.95C335.599 26.55 336.132 28.45 336.132 30.65V34.45H318.632V35.65C318.632 37.3167 319.115 38.7167 320.082 39.85C321.082 40.95 322.432 41.5 324.132 41.5C325.665 41.5 326.865 41.0833 327.732 40.25C328.632 39.3833 329.082 38.1167 329.082 36.45H336.082ZM323.782 24.95C322.315 24.95 321.115 25.4667 320.182 26.5C319.282 27.5333 318.765 28.85 318.632 30.45H328.732C328.732 28.75 328.332 27.4167 327.532 26.45C326.765 25.45 325.515 24.95 323.782 24.95ZM359.068 23.65C360.934 21.1833 363.334 19.95 366.268 19.95C368.268 19.95 370.068 20.4333 371.668 21.4C373.268 22.3667 374.534 23.8333 375.468 25.8C376.401 27.7667 376.868 30.2 376.868 33.1V33.65C376.868 36.4167 376.434 38.7667 375.568 40.7C374.701 42.6333 373.518 44.0833 372.018 45.05C370.551 46.0167 368.884 46.5 367.018 46.5C365.418 46.5 364.001 46.1667 362.768 45.5C361.568 44.8333 360.601 44.0167 359.868 43.05V55.05H352.568V20.45H358.318L359.068 23.65ZM369.468 31C369.468 29.0333 369.018 27.5333 368.118 26.5C367.218 25.4667 366.068 24.95 364.668 24.95C363.268 24.95 362.118 25.4667 361.218 26.5C360.318 27.5333 359.868 29.0333 359.868 31V35.15C359.868 37.0833 360.318 38.5833 361.218 39.65C362.118 40.6833 363.268 41.2 364.668 41.2C366.068 41.2 367.218 40.6833 368.118 39.65C369.018 38.5833 369.468 37.0833 369.468 35.15V31ZM406.954 33.95C406.954 36.5167 406.404 38.75 405.304 40.65C404.237 42.55 402.754 44 400.854 45C398.954 46 396.821 46.5 394.454 46.5H393.654C391.287 46.5 389.154 46 387.254 45C385.354 44 383.854 42.55 382.754 40.65C381.687 38.75 381.154 36.5167 381.154 33.95V32.5C381.154 29.9333 381.687 27.7 382.754 25.8C383.854 23.9 385.354 22.45 387.254 21.45C389.154 20.45 391.287 19.95 393.654 19.95H394.454C396.821 19.95 398.954 20.45 400.854 21.45C402.754 22.45 404.237 23.9 405.304 25.8C406.404 27.7 406.954 29.9333 406.954 32.5V33.95ZM399.554 31.2C399.554 29.1667 399.037 27.6167 398.004 26.55C397.004 25.4833 395.687 24.95 394.054 24.95C392.421 24.95 391.087 25.4833 390.054 26.55C389.054 27.6167 388.554 29.1667 388.554 31.2V35.25C388.554 37.2833 389.054 38.8333 390.054 39.9C391.087 40.9667 392.421 41.5 394.054 41.5C395.687 41.5 397.004 40.9667 398.004 39.9C399.037 38.8333 399.554 37.2833 399.554 35.25V31.2ZM412.332 10H419.732V15.75H412.332V10ZM412.382 46V20.45H419.682V46H412.382ZM432.548 24.2C434.648 21.3667 437.365 19.95 440.698 19.95C443.298 19.95 445.431 20.65 447.098 22.05C448.798 23.45 449.648 25.4833 449.648 28.15V46H442.348V29.75C442.348 28.45 441.965 27.3833 441.198 26.55C440.465 25.6833 439.515 25.25 438.348 25.25C437.048 25.25 435.931 25.75 434.998 26.75C434.065 27.7167 433.598 28.9 433.598 30.3V46H426.298V20.45H431.748L432.548 24.2ZM469.982 45.55C469.315 45.8167 468.432 46.0333 467.332 46.2C466.265 46.4 465.315 46.5 464.482 46.5C461.915 46.5 459.982 45.95 458.682 44.85C457.382 43.75 456.732 41.9167 456.732 39.35V25.45H453.932V20.45H456.982L459.532 12.3H464.032V20.45H469.982V25.45H464.032V38.1C464.032 39.4333 464.282 40.3333 464.782 40.8C465.315 41.2667 466.015 41.5 466.882 41.5C467.282 41.5 467.799 41.4333 468.432 41.3C469.065 41.1667 469.582 41.0167 469.982 40.85V45.55ZM479.287 38.2C479.287 39.3667 479.803 40.2167 480.837 40.75C481.87 41.25 483.153 41.5 484.687 41.5C486.02 41.5 487.203 41.3 488.237 40.9C489.303 40.5 489.837 39.8667 489.837 39C489.837 38.0667 489.353 37.4 488.387 37C487.42 36.6 485.92 36.25 483.887 35.95C481.753 35.5833 480.003 35.1833 478.637 34.75C477.27 34.3167 476.087 33.5667 475.087 32.5C474.12 31.4333 473.637 29.95 473.637 28.05C473.637 26.3167 474.137 24.85 475.137 23.65C476.17 22.4167 477.52 21.5 479.187 20.9C480.887 20.2667 482.737 19.95 484.737 19.95H485.737C487.503 19.95 489.17 20.25 490.737 20.85C492.337 21.4167 493.62 22.2333 494.587 23.3C495.553 24.3333 496.037 25.5167 496.037 26.85C496.037 27.1167 496.02 27.3667 495.987 27.6C495.953 27.8 495.937 27.9167 495.937 27.95H489.537C489.537 25.95 488.003 24.95 484.937 24.95C483.537 24.95 482.403 25.15 481.537 25.55C480.703 25.95 480.287 26.5 480.287 27.2C480.287 28.0333 480.737 28.6167 481.637 28.95C482.57 29.2833 484.02 29.6 485.987 29.9C488.22 30.2667 490.02 30.6667 491.387 31.1C492.787 31.5 494.003 32.25 495.037 33.35C496.07 34.4167 496.587 35.9333 496.587 37.9C496.587 40.9333 495.52 43.1333 493.387 44.5C491.253 45.8333 488.537 46.5 485.237 46.5H483.587C481.52 46.5 479.67 46.1833 478.037 45.55C476.403 44.9167 475.12 44.0167 474.187 42.85C473.287 41.6833 472.837 40.35 472.837 38.85L472.887 37.85H479.287V38.2ZM512.576 10H519.976V15.75H512.576V10ZM512.626 46V20.45H519.926V46H512.626ZM532.792 24.2C534.892 21.3667 537.609 19.95 540.942 19.95C543.542 19.95 545.676 20.65 547.342 22.05C549.042 23.45 549.892 25.4833 549.892 28.15V46H542.592V29.75C542.592 28.45 542.209 27.3833 541.442 26.55C540.709 25.6833 539.759 25.25 538.592 25.25C537.292 25.25 536.176 25.75 535.242 26.75C534.309 27.7167 533.842 28.9 533.842 30.3V46H526.542V20.45H531.992L532.792 24.2ZM581.163 19.95C582.796 19.95 584.263 20.3 585.563 21C586.863 21.7 587.863 22.7167 588.563 24.05C590.296 21.3167 592.779 19.95 596.013 19.95C598.413 19.95 600.396 20.6833 601.963 22.15C603.563 23.5833 604.363 25.5833 604.363 28.15V46H597.063V29.6C597.063 28.2 596.763 27.1333 596.163 26.4C595.563 25.6333 594.729 25.25 593.663 25.25C592.496 25.25 591.513 25.7167 590.713 26.65C589.913 27.5833 589.513 28.75 589.513 30.15V46H582.213V29.6C582.213 28.2333 581.896 27.1667 581.263 26.4C580.663 25.6333 579.829 25.25 578.762 25.25C577.596 25.25 576.613 25.7167 575.813 26.65C575.046 27.5833 574.663 28.75 574.663 30.15V46H567.362V20.45H572.863C573.063 21.2833 573.329 22.5333 573.663 24.2C574.563 22.7667 575.646 21.7 576.912 21C578.213 20.3 579.629 19.95 581.163 19.95ZM610.818 10H618.218V15.75H610.818V10ZM610.868 46V20.45H618.168V46H610.868ZM631.034 24.2C633.134 21.3667 635.851 19.95 639.184 19.95C641.784 19.95 643.918 20.65 645.584 22.05C647.284 23.45 648.134 25.4833 648.134 28.15V46H640.834V29.75C640.834 28.45 640.451 27.3833 639.684 26.55C638.951 25.6833 638.001 25.25 636.834 25.25C635.534 25.25 634.418 25.75 633.484 26.75C632.551 27.7167 632.084 28.9 632.084 30.3V46H624.784V20.45H630.234L631.034 24.2ZM671.268 42.8C669.402 45.2667 667.002 46.5 664.068 46.5C662.068 46.5 660.268 46.0167 658.668 45.05C657.068 44.0833 655.802 42.6167 654.868 40.65C653.935 38.6833 653.468 36.25 653.468 33.35V32.8C653.468 30.0333 653.902 27.6833 654.768 25.75C655.635 23.8167 656.802 22.3667 658.268 21.4C659.768 20.4333 661.452 19.95 663.318 19.95C664.918 19.95 666.318 20.2833 667.518 20.95C668.752 21.6167 669.735 22.4333 670.468 23.4V10H677.768V46H672.018L671.268 42.8ZM660.868 35.45C660.868 37.3833 661.318 38.8833 662.218 39.95C663.118 40.9833 664.268 41.5 665.668 41.5C667.068 41.5 668.218 40.9833 669.118 39.95C670.018 38.8833 670.468 37.3833 670.468 35.45V31.3C670.468 29.3333 670.018 27.8333 669.118 26.8C668.218 25.7667 667.068 25.25 665.668 25.25C664.268 25.25 663.118 25.7667 662.218 26.8C661.318 27.8333 660.868 29.3333 660.868 31.3V35.45ZM684.305 38.65H691.605V46H684.305V38.65ZM698.172 38.65H705.472V46H698.172V38.65ZM712.039 38.65H719.339V46H712.039V38.65Z" fill="#16D5E8"/>
</g>
<g filter="url(#filter1_f_435_2662)">
<path d="M15.15 7.7V23.4L27.5 7.7H36.15L24.6 22.15C27.4333 26.8833 29.0667 29.6167 29.5 30.35L36.5 42H27.75L19.6 28.1L15.15 33.05V42H7.6V7.7H15.15ZM64.0078 32.45C64.0078 34.6833 63.4745 36.5667 62.4078 38.1C61.3411 39.6 59.9245 40.7167 58.1578 41.45C56.4245 42.15 54.5245 42.5 52.4578 42.5H51.6578C49.2911 42.5 47.1578 42 45.2578 41C43.3578 40 41.8578 38.5667 40.7578 36.7C39.6911 34.8 39.1578 32.55 39.1578 29.95V28.5C39.1578 25.9333 39.7078 23.7 40.8078 21.8C41.9078 19.9 43.3911 18.45 45.2578 17.45C47.1578 16.45 49.2911 15.95 51.6578 15.95H52.4578C54.5245 15.95 56.4411 16.3833 58.2078 17.25C59.9745 18.0833 61.3911 19.3167 62.4578 20.95C63.5245 22.55 64.0578 24.45 64.0578 26.65V30.45H46.5578V31.65C46.5578 33.3167 47.0411 34.7167 48.0078 35.85C49.0078 36.95 50.3578 37.5 52.0578 37.5C53.5911 37.5 54.7911 37.0833 55.6578 36.25C56.5578 35.3833 57.0078 34.1167 57.0078 32.45H64.0078ZM51.7078 20.95C50.2411 20.95 49.0411 21.4667 48.1078 22.5C47.2078 23.5333 46.6911 24.85 46.5578 26.45H56.6578C56.6578 24.75 56.2578 23.4167 55.4578 22.45C54.6911 21.45 53.4411 20.95 51.7078 20.95ZM93.207 32.45C93.207 34.6833 92.6737 36.5667 91.607 38.1C90.5404 39.6 89.1237 40.7167 87.357 41.45C85.6237 42.15 83.7237 42.5 81.657 42.5H80.857C78.4904 42.5 76.357 42 74.457 41C72.557 40 71.057 38.5667 69.957 36.7C68.8904 34.8 68.357 32.55 68.357 29.95V28.5C68.357 25.9333 68.907 23.7 70.007 21.8C71.107 19.9 72.5904 18.45 74.457 17.45C76.357 16.45 78.4904 15.95 80.857 15.95H81.657C83.7237 15.95 85.6404 16.3833 87.407 17.25C89.1737 18.0833 90.5904 19.3167 91.657 20.95C92.7237 22.55 93.257 24.45 93.257 26.65V30.45H75.757V31.65C75.757 33.3167 76.2404 34.7167 77.207 35.85C78.207 36.95 79.557 37.5 81.257 37.5C82.7904 37.5 83.9904 37.0833 84.857 36.25C85.757 35.3833 86.207 34.1167 86.207 32.45H93.207ZM80.907 20.95C79.4404 20.95 78.2404 21.4667 77.307 22.5C76.407 23.5333 75.8904 24.85 75.757 26.45H85.857C85.857 24.75 85.457 23.4167 84.657 22.45C83.8904 21.45 82.6404 20.95 80.907 20.95ZM105.206 19.65C107.073 17.1833 109.473 15.95 112.406 15.95C114.406 15.95 116.206 16.4333 117.806 17.4C119.406 18.3667 120.673 19.8333 121.606 21.8C122.54 23.7667 123.006 26.2 123.006 29.1V29.65C123.006 32.4167 122.573 34.7667 121.706 36.7C120.84 38.6333 119.656 40.0833 118.156 41.05C116.69 42.0167 115.023 42.5 113.156 42.5C111.556 42.5 110.14 42.1667 108.906 41.5C107.706 40.8333 106.74 40.0167 106.006 39.05V51.05H98.7062V16.45H104.456L105.206 19.65ZM115.606 27C115.606 25.0333 115.156 23.5333 114.256 22.5C113.356 21.4667 112.206 20.95 110.806 20.95C109.406 20.95 108.256 21.4667 107.356 22.5C106.456 23.5333 106.006 25.0333 106.006 27V31.15C106.006 33.0833 106.456 34.5833 107.356 35.65C108.256 36.6833 109.406 37.2 110.806 37.2C112.206 37.2 113.356 36.6833 114.256 35.65C115.156 34.5833 115.606 33.0833 115.606 31.15V27ZM128.393 6H135.793V11.75H128.393V6ZM128.443 42V16.45H135.743V42H128.443ZM148.609 20.2C150.709 17.3667 153.425 15.95 156.759 15.95C159.359 15.95 161.492 16.65 163.159 18.05C164.859 19.45 165.709 21.4833 165.709 24.15V42H158.409V25.75C158.409 24.45 158.025 23.3833 157.259 22.55C156.525 21.6833 155.575 21.25 154.409 21.25C153.109 21.25 151.992 21.75 151.059 22.75C150.125 23.7167 149.659 24.9 149.659 26.3V42H142.359V16.45H147.809L148.609 20.2ZM189.743 36.2C192.076 36.2 193.859 36.8667 195.093 38.2C196.359 39.5 196.993 41.2167 196.993 43.35C196.993 44.8833 196.559 46.2667 195.693 47.5C194.826 48.7333 193.643 49.6833 192.143 50.35C190.676 51.05 189.043 51.4 187.243 51.4H176.693C174.659 51.4 172.943 50.8333 171.543 49.7C170.176 48.6 169.493 47.0667 169.493 45.1C169.493 43.9 169.843 42.8167 170.543 41.85C171.276 40.85 172.193 40.1 173.293 39.6C172.526 39.1 171.943 38.4833 171.543 37.75C171.143 37.0167 170.943 36.2167 170.943 35.35C170.943 34.1167 171.343 33.05 172.143 32.15C172.943 31.2167 173.976 30.55 175.243 30.15C174.109 29.45 173.226 28.5667 172.593 27.5C171.959 26.4 171.643 25.2333 171.643 24C171.643 21.6333 172.559 19.7 174.393 18.2C176.259 16.7 178.976 15.95 182.543 15.95H183.343C184.909 15.95 186.309 16.15 187.543 16.55C188.909 15.75 189.859 14.9333 190.393 14.1C190.926 13.2667 191.226 12.5167 191.293 11.85H196.993C196.993 15.3833 195.226 17.5833 191.693 18.45L191.643 18.6C193.409 20.1 194.293 21.9 194.293 24C194.293 25.4667 193.876 26.8167 193.043 28.05C192.209 29.25 191.026 30.2167 189.493 30.95C187.993 31.65 186.259 32 184.293 32H180.843C179.843 32 179.059 32.2167 178.493 32.65C177.959 33.0833 177.693 33.5667 177.693 34.1C177.693 34.7667 177.943 35.2833 178.443 35.65C178.976 36.0167 179.776 36.2 180.843 36.2H189.743ZM178.643 24C178.643 25.1667 179.059 26.0833 179.893 26.75C180.726 27.3833 181.776 27.7 183.043 27.7C184.343 27.7 185.409 27.3833 186.243 26.75C187.076 26.0833 187.493 25.1667 187.493 24C187.493 22.8333 187.076 21.9333 186.243 21.3C185.409 20.6333 184.343 20.3 183.043 20.3C181.776 20.3 180.726 20.6333 179.893 21.3C179.059 21.9333 178.643 22.8333 178.643 24ZM187.043 46.9C187.909 46.9 188.659 46.6333 189.293 46.1C189.926 45.6 190.243 45 190.243 44.3C190.243 43.6333 189.976 43.0667 189.443 42.6C188.909 42.1667 188.209 41.95 187.343 41.95H178.643C177.909 41.95 177.276 42.1833 176.743 42.65C176.209 43.15 175.943 43.7333 175.943 44.4C175.943 45.0667 176.209 45.65 176.743 46.15C177.276 46.65 177.909 46.9 178.643 46.9H187.043ZM225.642 41.55C224.976 41.8167 224.092 42.0333 222.992 42.2C221.926 42.4 220.976 42.5 220.142 42.5C217.576 42.5 215.642 41.95 214.342 40.85C213.042 39.75 212.392 37.9167 212.392 35.35V21.45H209.592V16.45H212.642L215.192 8.3H219.692V16.45H225.642V21.45H219.692V34.1C219.692 35.4333 219.942 36.3333 220.442 36.8C220.976 37.2667 221.676 37.5 222.542 37.5C222.942 37.5 223.459 37.4333 224.092 37.3C224.726 37.1667 225.242 37.0167 225.642 36.85V41.55ZM237.647 18.95C239.58 16.95 241.947 15.95 244.747 15.95C247.347 15.95 249.48 16.65 251.147 18.05C252.847 19.45 253.697 21.4833 253.697 24.15V42H246.397V25.75C246.397 24.45 246.014 23.3833 245.247 22.55C244.514 21.6833 243.564 21.25 242.397 21.25C241.097 21.25 239.98 21.75 239.047 22.75C238.114 23.7167 237.647 24.9 237.647 26.3V42H230.347V6H237.647V18.95ZM283.93 32.45C283.93 34.6833 283.396 36.5667 282.33 38.1C281.263 39.6 279.846 40.7167 278.08 41.45C276.346 42.15 274.446 42.5 272.38 42.5H271.58C269.213 42.5 267.08 42 265.18 41C263.28 40 261.78 38.5667 260.68 36.7C259.613 34.8 259.08 32.55 259.08 29.95V28.5C259.08 25.9333 259.63 23.7 260.73 21.8C261.83 19.9 263.313 18.45 265.18 17.45C267.08 16.45 269.213 15.95 271.58 15.95H272.38C274.446 15.95 276.363 16.3833 278.13 17.25C279.896 18.0833 281.313 19.3167 282.38 20.95C283.446 22.55 283.98 24.45 283.98 26.65V30.45H266.48V31.65C266.48 33.3167 266.963 34.7167 267.93 35.85C268.93 36.95 270.28 37.5 271.98 37.5C273.513 37.5 274.713 37.0833 275.58 36.25C276.48 35.3833 276.93 34.1167 276.93 32.45H283.93ZM271.63 20.95C270.163 20.95 268.963 21.4667 268.03 22.5C267.13 23.5333 266.613 24.85 266.48 26.45H276.58C276.58 24.75 276.18 23.4167 275.38 22.45C274.613 21.45 273.363 20.95 271.63 20.95ZM294.029 34.2C294.029 35.3667 294.546 36.2167 295.579 36.75C296.612 37.25 297.896 37.5 299.429 37.5C300.762 37.5 301.946 37.3 302.979 36.9C304.046 36.5 304.579 35.8667 304.579 35C304.579 34.0667 304.096 33.4 303.129 33C302.162 32.6 300.662 32.25 298.629 31.95C296.496 31.5833 294.746 31.1833 293.379 30.75C292.012 30.3167 290.829 29.5667 289.829 28.5C288.862 27.4333 288.379 25.95 288.379 24.05C288.379 22.3167 288.879 20.85 289.879 19.65C290.912 18.4167 292.262 17.5 293.929 16.9C295.629 16.2667 297.479 15.95 299.479 15.95H300.479C302.246 15.95 303.912 16.25 305.479 16.85C307.079 17.4167 308.362 18.2333 309.329 19.3C310.296 20.3333 310.779 21.5167 310.779 22.85C310.779 23.1167 310.762 23.3667 310.729 23.6C310.696 23.8 310.679 23.9167 310.679 23.95H304.279C304.279 21.95 302.746 20.95 299.679 20.95C298.279 20.95 297.146 21.15 296.279 21.55C295.446 21.95 295.029 22.5 295.029 23.2C295.029 24.0333 295.479 24.6167 296.379 24.95C297.312 25.2833 298.762 25.6 300.729 25.9C302.962 26.2667 304.762 26.6667 306.129 27.1C307.529 27.5 308.746 28.25 309.779 29.35C310.812 30.4167 311.329 31.9333 311.329 33.9C311.329 36.9333 310.262 39.1333 308.129 40.5C305.996 41.8333 303.279 42.5 299.979 42.5H298.329C296.262 42.5 294.412 42.1833 292.779 41.55C291.146 40.9167 289.862 40.0167 288.929 38.85C288.029 37.6833 287.579 36.35 287.579 34.85L287.629 33.85H294.029V34.2ZM340.082 32.45C340.082 34.6833 339.549 36.5667 338.482 38.1C337.415 39.6 335.999 40.7167 334.232 41.45C332.499 42.15 330.599 42.5 328.532 42.5H327.732C325.365 42.5 323.232 42 321.332 41C319.432 40 317.932 38.5667 316.832 36.7C315.765 34.8 315.232 32.55 315.232 29.95V28.5C315.232 25.9333 315.782 23.7 316.882 21.8C317.982 19.9 319.465 18.45 321.332 17.45C323.232 16.45 325.365 15.95 327.732 15.95H328.532C330.599 15.95 332.515 16.3833 334.282 17.25C336.049 18.0833 337.465 19.3167 338.532 20.95C339.599 22.55 340.132 24.45 340.132 26.65V30.45H322.632V31.65C322.632 33.3167 323.115 34.7167 324.082 35.85C325.082 36.95 326.432 37.5 328.132 37.5C329.665 37.5 330.865 37.0833 331.732 36.25C332.632 35.3833 333.082 34.1167 333.082 32.45H340.082ZM327.782 20.95C326.315 20.95 325.115 21.4667 324.182 22.5C323.282 23.5333 322.765 24.85 322.632 26.45H332.732C332.732 24.75 332.332 23.4167 331.532 22.45C330.765 21.45 329.515 20.95 327.782 20.95ZM363.068 19.65C364.934 17.1833 367.334 15.95 370.268 15.95C372.268 15.95 374.068 16.4333 375.668 17.4C377.268 18.3667 378.534 19.8333 379.468 21.8C380.401 23.7667 380.868 26.2 380.868 29.1V29.65C380.868 32.4167 380.434 34.7667 379.568 36.7C378.701 38.6333 377.518 40.0833 376.018 41.05C374.551 42.0167 372.884 42.5 371.018 42.5C369.418 42.5 368.001 42.1667 366.768 41.5C365.568 40.8333 364.601 40.0167 363.868 39.05V51.05H356.568V16.45H362.318L363.068 19.65ZM373.468 27C373.468 25.0333 373.018 23.5333 372.118 22.5C371.218 21.4667 370.068 20.95 368.668 20.95C367.268 20.95 366.118 21.4667 365.218 22.5C364.318 23.5333 363.868 25.0333 363.868 27V31.15C363.868 33.0833 364.318 34.5833 365.218 35.65C366.118 36.6833 367.268 37.2 368.668 37.2C370.068 37.2 371.218 36.6833 372.118 35.65C373.018 34.5833 373.468 33.0833 373.468 31.15V27ZM410.954 29.95C410.954 32.5167 410.404 34.75 409.304 36.65C408.237 38.55 406.754 40 404.854 41C402.954 42 400.821 42.5 398.454 42.5H397.654C395.287 42.5 393.154 42 391.254 41C389.354 40 387.854 38.55 386.754 36.65C385.687 34.75 385.154 32.5167 385.154 29.95V28.5C385.154 25.9333 385.687 23.7 386.754 21.8C387.854 19.9 389.354 18.45 391.254 17.45C393.154 16.45 395.287 15.95 397.654 15.95H398.454C400.821 15.95 402.954 16.45 404.854 17.45C406.754 18.45 408.237 19.9 409.304 21.8C410.404 23.7 410.954 25.9333 410.954 28.5V29.95ZM403.554 27.2C403.554 25.1667 403.037 23.6167 402.004 22.55C401.004 21.4833 399.687 20.95 398.054 20.95C396.421 20.95 395.087 21.4833 394.054 22.55C393.054 23.6167 392.554 25.1667 392.554 27.2V31.25C392.554 33.2833 393.054 34.8333 394.054 35.9C395.087 36.9667 396.421 37.5 398.054 37.5C399.687 37.5 401.004 36.9667 402.004 35.9C403.037 34.8333 403.554 33.2833 403.554 31.25V27.2ZM416.332 6H423.732V11.75H416.332V6ZM416.382 42V16.45H423.682V42H416.382ZM436.548 20.2C438.648 17.3667 441.365 15.95 444.698 15.95C447.298 15.95 449.431 16.65 451.098 18.05C452.798 19.45 453.648 21.4833 453.648 24.15V42H446.348V25.75C446.348 24.45 445.965 23.3833 445.198 22.55C444.465 21.6833 443.515 21.25 442.348 21.25C441.048 21.25 439.931 21.75 438.998 22.75C438.065 23.7167 437.598 24.9 437.598 26.3V42H430.298V16.45H435.748L436.548 20.2ZM473.982 41.55C473.315 41.8167 472.432 42.0333 471.332 42.2C470.265 42.4 469.315 42.5 468.482 42.5C465.915 42.5 463.982 41.95 462.682 40.85C461.382 39.75 460.732 37.9167 460.732 35.35V21.45H457.932V16.45H460.982L463.532 8.3H468.032V16.45H473.982V21.45H468.032V34.1C468.032 35.4333 468.282 36.3333 468.782 36.8C469.315 37.2667 470.015 37.5 470.882 37.5C471.282 37.5 471.799 37.4333 472.432 37.3C473.065 37.1667 473.582 37.0167 473.982 36.85V41.55ZM483.287 34.2C483.287 35.3667 483.803 36.2167 484.837 36.75C485.87 37.25 487.153 37.5 488.687 37.5C490.02 37.5 491.203 37.3 492.237 36.9C493.303 36.5 493.837 35.8667 493.837 35C493.837 34.0667 493.353 33.4 492.387 33C491.42 32.6 489.92 32.25 487.887 31.95C485.753 31.5833 484.003 31.1833 482.637 30.75C481.27 30.3167 480.087 29.5667 479.087 28.5C478.12 27.4333 477.637 25.95 477.637 24.05C477.637 22.3167 478.137 20.85 479.137 19.65C480.17 18.4167 481.52 17.5 483.187 16.9C484.887 16.2667 486.737 15.95 488.737 15.95H489.737C491.503 15.95 493.17 16.25 494.737 16.85C496.337 17.4167 497.62 18.2333 498.587 19.3C499.553 20.3333 500.037 21.5167 500.037 22.85C500.037 23.1167 500.02 23.3667 499.987 23.6C499.953 23.8 499.937 23.9167 499.937 23.95H493.537C493.537 21.95 492.003 20.95 488.937 20.95C487.537 20.95 486.403 21.15 485.537 21.55C484.703 21.95 484.287 22.5 484.287 23.2C484.287 24.0333 484.737 24.6167 485.637 24.95C486.57 25.2833 488.02 25.6 489.987 25.9C492.22 26.2667 494.02 26.6667 495.387 27.1C496.787 27.5 498.003 28.25 499.037 29.35C500.07 30.4167 500.587 31.9333 500.587 33.9C500.587 36.9333 499.52 39.1333 497.387 40.5C495.253 41.8333 492.537 42.5 489.237 42.5H487.587C485.52 42.5 483.67 42.1833 482.037 41.55C480.403 40.9167 479.12 40.0167 478.187 38.85C477.287 37.6833 476.837 36.35 476.837 34.85L476.887 33.85H483.287V34.2ZM516.576 6H523.976V11.75H516.576V6ZM516.626 42V16.45H523.926V42H516.626ZM536.792 20.2C538.892 17.3667 541.609 15.95 544.942 15.95C547.542 15.95 549.676 16.65 551.342 18.05C553.042 19.45 553.892 21.4833 553.892 24.15V42H546.592V25.75C546.592 24.45 546.209 23.3833 545.442 22.55C544.709 21.6833 543.759 21.25 542.592 21.25C541.292 21.25 540.176 21.75 539.242 22.75C538.309 23.7167 537.842 24.9 537.842 26.3V42H530.542V16.45H535.992L536.792 20.2ZM585.163 15.95C586.796 15.95 588.263 16.3 589.563 17C590.863 17.7 591.863 18.7167 592.563 20.05C594.296 17.3167 596.779 15.95 600.013 15.95C602.413 15.95 604.396 16.6833 605.963 18.15C607.563 19.5833 608.363 21.5833 608.363 24.15V42H601.063V25.6C601.063 24.2 600.763 23.1333 600.163 22.4C599.563 21.6333 598.729 21.25 597.663 21.25C596.496 21.25 595.513 21.7167 594.713 22.65C593.913 23.5833 593.513 24.75 593.513 26.15V42H586.213V25.6C586.213 24.2333 585.896 23.1667 585.263 22.4C584.663 21.6333 583.829 21.25 582.762 21.25C581.596 21.25 580.613 21.7167 579.813 22.65C579.046 23.5833 578.663 24.75 578.663 26.15V42H571.362V16.45H576.863C577.063 17.2833 577.329 18.5333 577.663 20.2C578.563 18.7667 579.646 17.7 580.912 17C582.213 16.3 583.629 15.95 585.163 15.95ZM614.818 6H622.218V11.75H614.818V6ZM614.868 42V16.45H622.168V42H614.868ZM635.034 20.2C637.134 17.3667 639.851 15.95 643.184 15.95C645.784 15.95 647.918 16.65 649.584 18.05C651.284 19.45 652.134 21.4833 652.134 24.15V42H644.834V25.75C644.834 24.45 644.451 23.3833 643.684 22.55C642.951 21.6833 642.001 21.25 640.834 21.25C639.534 21.25 638.418 21.75 637.484 22.75C636.551 23.7167 636.084 24.9 636.084 26.3V42H628.784V16.45H634.234L635.034 20.2ZM675.268 38.8C673.402 41.2667 671.002 42.5 668.068 42.5C666.068 42.5 664.268 42.0167 662.668 41.05C661.068 40.0833 659.802 38.6167 658.868 36.65C657.935 34.6833 657.468 32.25 657.468 29.35V28.8C657.468 26.0333 657.902 23.6833 658.768 21.75C659.635 19.8167 660.802 18.3667 662.268 17.4C663.768 16.4333 665.452 15.95 667.318 15.95C668.918 15.95 670.318 16.2833 671.518 16.95C672.752 17.6167 673.735 18.4333 674.468 19.4V6H681.768V42H676.018L675.268 38.8ZM664.868 31.45C664.868 33.3833 665.318 34.8833 666.218 35.95C667.118 36.9833 668.268 37.5 669.668 37.5C671.068 37.5 672.218 36.9833 673.118 35.95C674.018 34.8833 674.468 33.3833 674.468 31.45V27.3C674.468 25.3333 674.018 23.8333 673.118 22.8C672.218 21.7667 671.068 21.25 669.668 21.25C668.268 21.25 667.118 21.7667 666.218 22.8C665.318 23.8333 664.868 25.3333 664.868 27.3V31.45ZM688.305 34.65H695.605V42H688.305V34.65ZM702.172 34.65H709.472V42H702.172V34.65ZM716.039 34.65H723.339V42H716.039V34.65Z" fill="#F82D6B"/>
</g>
<path d="M13.15 9.7V25.4L25.5 9.7H34.15L22.6 24.15C25.4333 28.8833 27.0667 31.6167 27.5 32.35L34.5 44H25.75L17.6 30.1L13.15 35.05V44H5.6V9.7H13.15ZM62.0078 34.45C62.0078 36.6833 61.4745 38.5667 60.4078 40.1C59.3411 41.6 57.9245 42.7167 56.1578 43.45C54.4245 44.15 52.5245 44.5 50.4578 44.5H49.6578C47.2911 44.5 45.1578 44 43.2578 43C41.3578 42 39.8578 40.5667 38.7578 38.7C37.6911 36.8 37.1578 34.55 37.1578 31.95V30.5C37.1578 27.9333 37.7078 25.7 38.8078 23.8C39.9078 21.9 41.3911 20.45 43.2578 19.45C45.1578 18.45 47.2911 17.95 49.6578 17.95H50.4578C52.5245 17.95 54.4411 18.3833 56.2078 19.25C57.9745 20.0833 59.3911 21.3167 60.4578 22.95C61.5245 24.55 62.0578 26.45 62.0578 28.65V32.45H44.5578V33.65C44.5578 35.3167 45.0411 36.7167 46.0078 37.85C47.0078 38.95 48.3578 39.5 50.0578 39.5C51.5911 39.5 52.7911 39.0833 53.6578 38.25C54.5578 37.3833 55.0078 36.1167 55.0078 34.45H62.0078ZM49.7078 22.95C48.2411 22.95 47.0411 23.4667 46.1078 24.5C45.2078 25.5333 44.6911 26.85 44.5578 28.45H54.6578C54.6578 26.75 54.2578 25.4167 53.4578 24.45C52.6911 23.45 51.4411 22.95 49.7078 22.95ZM91.207 34.45C91.207 36.6833 90.6737 38.5667 89.607 40.1C88.5404 41.6 87.1237 42.7167 85.357 43.45C83.6237 44.15 81.7237 44.5 79.657 44.5H78.857C76.4904 44.5 74.357 44 72.457 43C70.557 42 69.057 40.5667 67.957 38.7C66.8904 36.8 66.357 34.55 66.357 31.95V30.5C66.357 27.9333 66.907 25.7 68.007 23.8C69.107 21.9 70.5904 20.45 72.457 19.45C74.357 18.45 76.4904 17.95 78.857 17.95H79.657C81.7237 17.95 83.6404 18.3833 85.407 19.25C87.1737 20.0833 88.5904 21.3167 89.657 22.95C90.7237 24.55 91.257 26.45 91.257 28.65V32.45H73.757V33.65C73.757 35.3167 74.2404 36.7167 75.207 37.85C76.207 38.95 77.557 39.5 79.257 39.5C80.7904 39.5 81.9904 39.0833 82.857 38.25C83.757 37.3833 84.207 36.1167 84.207 34.45H91.207ZM78.907 22.95C77.4404 22.95 76.2404 23.4667 75.307 24.5C74.407 25.5333 73.8904 26.85 73.757 28.45H83.857C83.857 26.75 83.457 25.4167 82.657 24.45C81.8904 23.45 80.6404 22.95 78.907 22.95ZM103.206 21.65C105.073 19.1833 107.473 17.95 110.406 17.95C112.406 17.95 114.206 18.4333 115.806 19.4C117.406 20.3667 118.673 21.8333 119.606 23.8C120.54 25.7667 121.006 28.2 121.006 31.1V31.65C121.006 34.4167 120.573 36.7667 119.706 38.7C118.84 40.6333 117.656 42.0833 116.156 43.05C114.69 44.0167 113.023 44.5 111.156 44.5C109.556 44.5 108.14 44.1667 106.906 43.5C105.706 42.8333 104.74 42.0167 104.006 41.05V53.05H96.7062V18.45H102.456L103.206 21.65ZM113.606 29C113.606 27.0333 113.156 25.5333 112.256 24.5C111.356 23.4667 110.206 22.95 108.806 22.95C107.406 22.95 106.256 23.4667 105.356 24.5C104.456 25.5333 104.006 27.0333 104.006 29V33.15C104.006 35.0833 104.456 36.5833 105.356 37.65C106.256 38.6833 107.406 39.2 108.806 39.2C110.206 39.2 111.356 38.6833 112.256 37.65C113.156 36.5833 113.606 35.0833 113.606 33.15V29ZM126.393 8H133.793V13.75H126.393V8ZM126.443 44V18.45H133.743V44H126.443ZM146.609 22.2C148.709 19.3667 151.425 17.95 154.759 17.95C157.359 17.95 159.492 18.65 161.159 20.05C162.859 21.45 163.709 23.4833 163.709 26.15V44H156.409V27.75C156.409 26.45 156.025 25.3833 155.259 24.55C154.525 23.6833 153.575 23.25 152.409 23.25C151.109 23.25 149.992 23.75 149.059 24.75C148.125 25.7167 147.659 26.9 147.659 28.3V44H140.359V18.45H145.809L146.609 22.2ZM187.743 38.2C190.076 38.2 191.859 38.8667 193.093 40.2C194.359 41.5 194.993 43.2167 194.993 45.35C194.993 46.8833 194.559 48.2667 193.693 49.5C192.826 50.7333 191.643 51.6833 190.143 52.35C188.676 53.05 187.043 53.4 185.243 53.4H174.693C172.659 53.4 170.943 52.8333 169.543 51.7C168.176 50.6 167.493 49.0667 167.493 47.1C167.493 45.9 167.843 44.8167 168.543 43.85C169.276 42.85 170.193 42.1 171.293 41.6C170.526 41.1 169.943 40.4833 169.543 39.75C169.143 39.0167 168.943 38.2167 168.943 37.35C168.943 36.1167 169.343 35.05 170.143 34.15C170.943 33.2167 171.976 32.55 173.243 32.15C172.109 31.45 171.226 30.5667 170.593 29.5C169.959 28.4 169.643 27.2333 169.643 26C169.643 23.6333 170.559 21.7 172.393 20.2C174.259 18.7 176.976 17.95 180.543 17.95H181.343C182.909 17.95 184.309 18.15 185.543 18.55C186.909 17.75 187.859 16.9333 188.393 16.1C188.926 15.2667 189.226 14.5167 189.293 13.85H194.993C194.993 17.3833 193.226 19.5833 189.693 20.45L189.643 20.6C191.409 22.1 192.293 23.9 192.293 26C192.293 27.4667 191.876 28.8167 191.043 30.05C190.209 31.25 189.026 32.2167 187.493 32.95C185.993 33.65 184.259 34 182.293 34H178.843C177.843 34 177.059 34.2167 176.493 34.65C175.959 35.0833 175.693 35.5667 175.693 36.1C175.693 36.7667 175.943 37.2833 176.443 37.65C176.976 38.0167 177.776 38.2 178.843 38.2H187.743ZM176.643 26C176.643 27.1667 177.059 28.0833 177.893 28.75C178.726 29.3833 179.776 29.7 181.043 29.7C182.343 29.7 183.409 29.3833 184.243 28.75C185.076 28.0833 185.493 27.1667 185.493 26C185.493 24.8333 185.076 23.9333 184.243 23.3C183.409 22.6333 182.343 22.3 181.043 22.3C179.776 22.3 178.726 22.6333 177.893 23.3C177.059 23.9333 176.643 24.8333 176.643 26ZM185.043 48.9C185.909 48.9 186.659 48.6333 187.293 48.1C187.926 47.6 188.243 47 188.243 46.3C188.243 45.6333 187.976 45.0667 187.443 44.6C186.909 44.1667 186.209 43.95 185.343 43.95H176.643C175.909 43.95 175.276 44.1833 174.743 44.65C174.209 45.15 173.943 45.7333 173.943 46.4C173.943 47.0667 174.209 47.65 174.743 48.15C175.276 48.65 175.909 48.9 176.643 48.9H185.043ZM223.642 43.55C222.976 43.8167 222.092 44.0333 220.992 44.2C219.926 44.4 218.976 44.5 218.142 44.5C215.576 44.5 213.642 43.95 212.342 42.85C211.042 41.75 210.392 39.9167 210.392 37.35V23.45H207.592V18.45H210.642L213.192 10.3H217.692V18.45H223.642V23.45H217.692V36.1C217.692 37.4333 217.942 38.3333 218.442 38.8C218.976 39.2667 219.676 39.5 220.542 39.5C220.942 39.5 221.459 39.4333 222.092 39.3C222.726 39.1667 223.242 39.0167 223.642 38.85V43.55ZM235.647 20.95C237.58 18.95 239.947 17.95 242.747 17.95C245.347 17.95 247.48 18.65 249.147 20.05C250.847 21.45 251.697 23.4833 251.697 26.15V44H244.397V27.75C244.397 26.45 244.014 25.3833 243.247 24.55C242.514 23.6833 241.564 23.25 240.397 23.25C239.097 23.25 237.98 23.75 237.047 24.75C236.114 25.7167 235.647 26.9 235.647 28.3V44H228.347V8H235.647V20.95ZM281.93 34.45C281.93 36.6833 281.396 38.5667 280.33 40.1C279.263 41.6 277.846 42.7167 276.08 43.45C274.346 44.15 272.446 44.5 270.38 44.5H269.58C267.213 44.5 265.08 44 263.18 43C261.28 42 259.78 40.5667 258.68 38.7C257.613 36.8 257.08 34.55 257.08 31.95V30.5C257.08 27.9333 257.63 25.7 258.73 23.8C259.83 21.9 261.313 20.45 263.18 19.45C265.08 18.45 267.213 17.95 269.58 17.95H270.38C272.446 17.95 274.363 18.3833 276.13 19.25C277.896 20.0833 279.313 21.3167 280.38 22.95C281.446 24.55 281.98 26.45 281.98 28.65V32.45H264.48V33.65C264.48 35.3167 264.963 36.7167 265.93 37.85C266.93 38.95 268.28 39.5 269.98 39.5C271.513 39.5 272.713 39.0833 273.58 38.25C274.48 37.3833 274.93 36.1167 274.93 34.45H281.93ZM269.63 22.95C268.163 22.95 266.963 23.4667 266.03 24.5C265.13 25.5333 264.613 26.85 264.48 28.45H274.58C274.58 26.75 274.18 25.4167 273.38 24.45C272.613 23.45 271.363 22.95 269.63 22.95ZM292.029 36.2C292.029 37.3667 292.546 38.2167 293.579 38.75C294.612 39.25 295.896 39.5 297.429 39.5C298.762 39.5 299.946 39.3 300.979 38.9C302.046 38.5 302.579 37.8667 302.579 37C302.579 36.0667 302.096 35.4 301.129 35C300.162 34.6 298.662 34.25 296.629 33.95C294.496 33.5833 292.746 33.1833 291.379 32.75C290.012 32.3167 288.829 31.5667 287.829 30.5C286.862 29.4333 286.379 27.95 286.379 26.05C286.379 24.3167 286.879 22.85 287.879 21.65C288.912 20.4167 290.262 19.5 291.929 18.9C293.629 18.2667 295.479 17.95 297.479 17.95H298.479C300.246 17.95 301.912 18.25 303.479 18.85C305.079 19.4167 306.362 20.2333 307.329 21.3C308.296 22.3333 308.779 23.5167 308.779 24.85C308.779 25.1167 308.762 25.3667 308.729 25.6C308.696 25.8 308.679 25.9167 308.679 25.95H302.279C302.279 23.95 300.746 22.95 297.679 22.95C296.279 22.95 295.146 23.15 294.279 23.55C293.446 23.95 293.029 24.5 293.029 25.2C293.029 26.0333 293.479 26.6167 294.379 26.95C295.312 27.2833 296.762 27.6 298.729 27.9C300.962 28.2667 302.762 28.6667 304.129 29.1C305.529 29.5 306.746 30.25 307.779 31.35C308.812 32.4167 309.329 33.9333 309.329 35.9C309.329 38.9333 308.262 41.1333 306.129 42.5C303.996 43.8333 301.279 44.5 297.979 44.5H296.329C294.262 44.5 292.412 44.1833 290.779 43.55C289.146 42.9167 287.862 42.0167 286.929 40.85C286.029 39.6833 285.579 38.35 285.579 36.85L285.629 35.85H292.029V36.2ZM338.082 34.45C338.082 36.6833 337.549 38.5667 336.482 40.1C335.415 41.6 333.999 42.7167 332.232 43.45C330.499 44.15 328.599 44.5 326.532 44.5H325.732C323.365 44.5 321.232 44 319.332 43C317.432 42 315.932 40.5667 314.832 38.7C313.765 36.8 313.232 34.55 313.232 31.95V30.5C313.232 27.9333 313.782 25.7 314.882 23.8C315.982 21.9 317.465 20.45 319.332 19.45C321.232 18.45 323.365 17.95 325.732 17.95H326.532C328.599 17.95 330.515 18.3833 332.282 19.25C334.049 20.0833 335.465 21.3167 336.532 22.95C337.599 24.55 338.132 26.45 338.132 28.65V32.45H320.632V33.65C320.632 35.3167 321.115 36.7167 322.082 37.85C323.082 38.95 324.432 39.5 326.132 39.5C327.665 39.5 328.865 39.0833 329.732 38.25C330.632 37.3833 331.082 36.1167 331.082 34.45H338.082ZM325.782 22.95C324.315 22.95 323.115 23.4667 322.182 24.5C321.282 25.5333 320.765 26.85 320.632 28.45H330.732C330.732 26.75 330.332 25.4167 329.532 24.45C328.765 23.45 327.515 22.95 325.782 22.95ZM361.068 21.65C362.934 19.1833 365.334 17.95 368.268 17.95C370.268 17.95 372.068 18.4333 373.668 19.4C375.268 20.3667 376.534 21.8333 377.468 23.8C378.401 25.7667 378.868 28.2 378.868 31.1V31.65C378.868 34.4167 378.434 36.7667 377.568 38.7C376.701 40.6333 375.518 42.0833 374.018 43.05C372.551 44.0167 370.884 44.5 369.018 44.5C367.418 44.5 366.001 44.1667 364.768 43.5C363.568 42.8333 362.601 42.0167 361.868 41.05V53.05H354.568V18.45H360.318L361.068 21.65ZM371.468 29C371.468 27.0333 371.018 25.5333 370.118 24.5C369.218 23.4667 368.068 22.95 366.668 22.95C365.268 22.95 364.118 23.4667 363.218 24.5C362.318 25.5333 361.868 27.0333 361.868 29V33.15C361.868 35.0833 362.318 36.5833 363.218 37.65C364.118 38.6833 365.268 39.2 366.668 39.2C368.068 39.2 369.218 38.6833 370.118 37.65C371.018 36.5833 371.468 35.0833 371.468 33.15V29ZM408.954 31.95C408.954 34.5167 408.404 36.75 407.304 38.65C406.237 40.55 404.754 42 402.854 43C400.954 44 398.821 44.5 396.454 44.5H395.654C393.287 44.5 391.154 44 389.254 43C387.354 42 385.854 40.55 384.754 38.65C383.687 36.75 383.154 34.5167 383.154 31.95V30.5C383.154 27.9333 383.687 25.7 384.754 23.8C385.854 21.9 387.354 20.45 389.254 19.45C391.154 18.45 393.287 17.95 395.654 17.95H396.454C398.821 17.95 400.954 18.45 402.854 19.45C404.754 20.45 406.237 21.9 407.304 23.8C408.404 25.7 408.954 27.9333 408.954 30.5V31.95ZM401.554 29.2C401.554 27.1667 401.037 25.6167 400.004 24.55C399.004 23.4833 397.687 22.95 396.054 22.95C394.421 22.95 393.087 23.4833 392.054 24.55C391.054 25.6167 390.554 27.1667 390.554 29.2V33.25C390.554 35.2833 391.054 36.8333 392.054 37.9C393.087 38.9667 394.421 39.5 396.054 39.5C397.687 39.5 399.004 38.9667 400.004 37.9C401.037 36.8333 401.554 35.2833 401.554 33.25V29.2ZM414.332 8H421.732V13.75H414.332V8ZM414.382 44V18.45H421.682V44H414.382ZM434.548 22.2C436.648 19.3667 439.365 17.95 442.698 17.95C445.298 17.95 447.431 18.65 449.098 20.05C450.798 21.45 451.648 23.4833 451.648 26.15V44H444.348V27.75C444.348 26.45 443.965 25.3833 443.198 24.55C442.465 23.6833 441.515 23.25 440.348 23.25C439.048 23.25 437.931 23.75 436.998 24.75C436.065 25.7167 435.598 26.9 435.598 28.3V44H428.298V18.45H433.748L434.548 22.2ZM471.982 43.55C471.315 43.8167 470.432 44.0333 469.332 44.2C468.265 44.4 467.315 44.5 466.482 44.5C463.915 44.5 461.982 43.95 460.682 42.85C459.382 41.75 458.732 39.9167 458.732 37.35V23.45H455.932V18.45H458.982L461.532 10.3H466.032V18.45H471.982V23.45H466.032V36.1C466.032 37.4333 466.282 38.3333 466.782 38.8C467.315 39.2667 468.015 39.5 468.882 39.5C469.282 39.5 469.799 39.4333 470.432 39.3C471.065 39.1667 471.582 39.0167 471.982 38.85V43.55ZM481.287 36.2C481.287 37.3667 481.803 38.2167 482.837 38.75C483.87 39.25 485.153 39.5 486.687 39.5C488.02 39.5 489.203 39.3 490.237 38.9C491.303 38.5 491.837 37.8667 491.837 37C491.837 36.0667 491.353 35.4 490.387 35C489.42 34.6 487.92 34.25 485.887 33.95C483.753 33.5833 482.003 33.1833 480.637 32.75C479.27 32.3167 478.087 31.5667 477.087 30.5C476.12 29.4333 475.637 27.95 475.637 26.05C475.637 24.3167 476.137 22.85 477.137 21.65C478.17 20.4167 479.52 19.5 481.187 18.9C482.887 18.2667 484.737 17.95 486.737 17.95H487.737C489.503 17.95 491.17 18.25 492.737 18.85C494.337 19.4167 495.62 20.2333 496.587 21.3C497.553 22.3333 498.037 23.5167 498.037 24.85C498.037 25.1167 498.02 25.3667 497.987 25.6C497.953 25.8 497.937 25.9167 497.937 25.95H491.537C491.537 23.95 490.003 22.95 486.937 22.95C485.537 22.95 484.403 23.15 483.537 23.55C482.703 23.95 482.287 24.5 482.287 25.2C482.287 26.0333 482.737 26.6167 483.637 26.95C484.57 27.2833 486.02 27.6 487.987 27.9C490.22 28.2667 492.02 28.6667 493.387 29.1C494.787 29.5 496.003 30.25 497.037 31.35C498.07 32.4167 498.587 33.9333 498.587 35.9C498.587 38.9333 497.52 41.1333 495.387 42.5C493.253 43.8333 490.537 44.5 487.237 44.5H485.587C483.52 44.5 481.67 44.1833 480.037 43.55C478.403 42.9167 477.12 42.0167 476.187 40.85C475.287 39.6833 474.837 38.35 474.837 36.85L474.887 35.85H481.287V36.2ZM514.576 8H521.976V13.75H514.576V8ZM514.626 44V18.45H521.926V44H514.626ZM534.792 22.2C536.892 19.3667 539.609 17.95 542.942 17.95C545.542 17.95 547.676 18.65 549.342 20.05C551.042 21.45 551.892 23.4833 551.892 26.15V44H544.592V27.75C544.592 26.45 544.209 25.3833 543.442 24.55C542.709 23.6833 541.759 23.25 540.592 23.25C539.292 23.25 538.176 23.75 537.242 24.75C536.309 25.7167 535.842 26.9 535.842 28.3V44H528.542V18.45H533.992L534.792 22.2ZM583.163 17.95C584.796 17.95 586.263 18.3 587.563 19C588.863 19.7 589.863 20.7167 590.563 22.05C592.296 19.3167 594.779 17.95 598.013 17.95C600.413 17.95 602.396 18.6833 603.963 20.15C605.563 21.5833 606.363 23.5833 606.363 26.15V44H599.063V27.6C599.063 26.2 598.763 25.1333 598.163 24.4C597.563 23.6333 596.729 23.25 595.663 23.25C594.496 23.25 593.513 23.7167 592.713 24.65C591.913 25.5833 591.513 26.75 591.513 28.15V44H584.213V27.6C584.213 26.2333 583.896 25.1667 583.263 24.4C582.663 23.6333 581.829 23.25 580.762 23.25C579.596 23.25 578.613 23.7167 577.813 24.65C577.046 25.5833 576.663 26.75 576.663 28.15V44H569.362V18.45H574.863C575.063 19.2833 575.329 20.5333 575.663 22.2C576.563 20.7667 577.646 19.7 578.912 19C580.213 18.3 581.629 17.95 583.163 17.95ZM612.818 8H620.218V13.75H612.818V8ZM612.868 44V18.45H620.168V44H612.868ZM633.034 22.2C635.134 19.3667 637.851 17.95 641.184 17.95C643.784 17.95 645.918 18.65 647.584 20.05C649.284 21.45 650.134 23.4833 650.134 26.15V44H642.834V27.75C642.834 26.45 642.451 25.3833 641.684 24.55C640.951 23.6833 640.001 23.25 638.834 23.25C637.534 23.25 636.418 23.75 635.484 24.75C634.551 25.7167 634.084 26.9 634.084 28.3V44H626.784V18.45H632.234L633.034 22.2ZM673.268 40.8C671.402 43.2667 669.002 44.5 666.068 44.5C664.068 44.5 662.268 44.0167 660.668 43.05C659.068 42.0833 657.802 40.6167 656.868 38.65C655.935 36.6833 655.468 34.25 655.468 31.35V30.8C655.468 28.0333 655.902 25.6833 656.768 23.75C657.635 21.8167 658.802 20.3667 660.268 19.4C661.768 18.4333 663.452 17.95 665.318 17.95C666.918 17.95 668.318 18.2833 669.518 18.95C670.752 19.6167 671.735 20.4333 672.468 21.4V8H679.768V44H674.018L673.268 40.8ZM662.868 33.45C662.868 35.3833 663.318 36.8833 664.218 37.95C665.118 38.9833 666.268 39.5 667.668 39.5C669.068 39.5 670.218 38.9833 671.118 37.95C672.018 36.8833 672.468 35.3833 672.468 33.45V29.3C672.468 27.3333 672.018 25.8333 671.118 24.8C670.218 23.7667 669.068 23.25 667.668 23.25C666.268 23.25 665.118 23.7667 664.218 24.8C663.318 25.8333 662.868 27.3333 662.868 29.3V33.45ZM686.305 36.65H693.605V44H686.305V36.65ZM700.172 36.65H707.472V44H700.172V36.65ZM714.039 36.65H721.339V44H714.039V36.65Z" fill="white"/>
<defs>
<filter id="filter0_f_435_2662" x="0.599609" y="7" width="721.74" height="51.4004" filterUnits="userSpaceOnUse" color-interpolation-filters="sRGB">
<feFlood flood-opacity="0" result="BackgroundImageFix"/>
<feBlend mode="normal" in="SourceGraphic" in2="BackgroundImageFix" result="shape"/>
<feGaussianBlur stdDeviation="1.5" result="effect1_foregroundBlur_435_2662"/>
</filter>
<filter id="filter1_f_435_2662" x="4.59961" y="3" width="721.74" height="51.4004" filterUnits="userSpaceOnUse" color-interpolation-filters="sRGB">
<feFlood flood-opacity="0" result="BackgroundImageFix"/>
<feBlend mode="normal" in="SourceGraphic" in2="BackgroundImageFix" result="shape"/>
<feGaussianBlur stdDeviation="1.5" result="effect1_foregroundBlur_435_2662"/>
</filter>
</defs>
</svg>
