<svg id="Layer_1" data-name="Layer 1" xmlns="http://www.w3.org/2000/svg" viewBox="0 0 547.86 338.15"><defs><style>.cls-1,.cls-2{fill:none;}.cls-2,.cls-3{stroke:#000;stroke-miterlimit:10;}</style></defs><title>Unleash P2</title><path d="M464.35,335.11l-1,.12c-7.33.9-20.72,2.48-20.72,2.48-4.35.52-10.6,1.27-18.44,2.29-.26.68-.67,1.71-1.16,2.95-1.67,4.2-2.12,5.14-2.82,6.94l-4.93,12.63a7.11,7.11,0,0,1-2.12,2.92,7.62,7.62,0,0,1-5.25,1.54c-1-.05-3.5-.16-4.91-2a5.59,5.59,0,0,1-1-2.37,6.72,6.72,0,0,1,0-2.21,12.34,12.34,0,0,1,1.17-3.71,4.54,4.54,0,0,1-2.71-.95c-1.39-1.16-1.5-3-1.58-4.25-.12-2,.37-3.52,1.27-6.36.29-.89.55-1.61.73-2.09l-3.21.64s-1.94.4-3.87.85c-8.79,2-20.72,6.06-20.73,6.06-18.11,6.13-15.42,4.89-21.46,7.12a277.53,277.53,0,0,0-29,12.63l-5.83,5.9a54.2,54.2,0,0,0-3.2,6.86,52.29,52.29,0,0,0-1.89,6,37.42,37.42,0,0,0-1.27,8.71,10.41,10.41,0,0,0,.14,3.29,7.83,7.83,0,0,0,.92,2.13c1.56-.71,3.91-1.77,6.78-3.05,6.08-2.7,9.58-4.19,12.8-5.6,9.48-4.16,9.94-4.75,16.06-7.34,9.27-3.93,17.18-6.69,23-8.57,8.12-2.61,15.25-4.48,20.26-5.79,6.52-1.7,7.91-1.91,17-4.29s8.48-2.38,14.58-3.9c10-2.49,29.11-5.84,37.87-6.83l2.54-.28a12.05,12.05,0,0,1-.85-3.28,14.6,14.6,0,0,1,.74-5.89,26.39,26.39,0,0,1,1.76-4.5,39.7,39.7,0,0,1,3.44-5.73c1-1.54,2-2.83,2.81-3.85l-3,.38Z" transform="translate(-183 -65.08)"/><path d="M463.38,335.23l1-.12Z" transform="translate(-183 -65.08)"/><path d="M524.06,333.92l-3.59.06-1.9,0a47.61,47.61,0,0,0-5.28,1.73c1.46,1.38,2.68,2.47,3.48,3.17,3.45,3,5,4,6.87,6.28a26.69,26.69,0,0,1,2.29,3.23c1.49-.76,3.82-1.91,6.73-3.23,5.33-2.42,9.92-4.16,14.22-5.79s5.28-1.9,8.5-3.23,5.58-2.42,7.25-3.21l0,0C562.49,332.82,535.1,333.71,524.06,333.92Z" transform="translate(-183 -65.08)"/><path d="M622.61,275.48a18.92,18.92,0,0,0-5.37-8.07,32.2,32.2,0,0,0-8.76-5.89,75,75,0,0,0-8.71-3.69c-1.83-.7-3.82-1.45-6.54-2.28a66.3,66.3,0,0,0-6.74-1.73,51.1,51.1,0,0,0-23.24.92,54.76,54.76,0,0,0-12.51,5.18,42.22,42.22,0,0,0-11.67,8.52c-2.08,2.23-5.91,6.33-4.65,8.86.64,1.29,2.4,1.74,3.78,1.91a22.13,22.13,0,0,0-2.93,2.13,18.52,18.52,0,0,0-4.5,5.47c-1.14,2.16-2,3.73-1.54,5.64a5.51,5.51,0,0,0,1.94,2.91c2.67,2.08,6.18.73,6.39.65a90.88,90.88,0,0,0,12.18-7.26c3.37-2.39,9.46-7.14,16.41-10.77a16,16,0,0,1,6-2,24.89,24.89,0,0,1,7,.72,15.24,15.24,0,0,1,3.59,1.53c1,.61,3.83,2.34,4.93,5.43a9.87,9.87,0,0,1-.45,7c-.48,1.24-1.49,3.1-5.43,6.29-3.22,2.61-5.57,3.8-14.11,8.48-.68.37-3.45,1.89-5.84,3.22-4.19,2.33-7.62,4.29-13.34,7.6-6.93,4-11.57,6.73-17.83,10.26a94.64,94.64,0,0,1-13.21,6c-.51.18-1,.34-1,.34-.26.08-1.28.39-2.67.7-.64.15-1.44.31-2.36.45h7.1c.24-.1.57-.22,1-.35l.53-.17c.42-.14,4.31-1.48,7.94-3.16a124.15,124.15,0,0,0,12.79-7.12c24-13.79,41.43-24.07,42.68-25a31.62,31.62,0,0,0,2.64-2.23c.17-.15.34-.32.53-.52a14.65,14.65,0,0,0,2.45-3.21,13.68,13.68,0,0,0,1.64-6.14,11,11,0,0,0-.37-3.45,9.82,9.82,0,0,0-1.78-3.54c-1.3-1.59-2.88-2.24-6-3.54a23.6,23.6,0,0,0-4.66-1.51,24.84,24.84,0,0,0-5.08-.42,15.78,15.78,0,0,0-2.39.11,15.25,15.25,0,0,0-5,1.68,37.74,37.74,0,0,0-5.18,3.07s-20.06,15-23.82,15.53a3.52,3.52,0,0,1-.62.05,3.46,3.46,0,0,1-.35,0,4.57,4.57,0,0,1-2.85-2.34c-.52-1.33.23-2.65,1.31-4.56a22.92,22.92,0,0,1,5.49-6.15c.51-.38,1.84-1.32,2.71-1.94.53-.38,1.16-.81,1.9-1.32,2.59-1.78,3.89-2.67,5.28-3.46s2.67-1.69,4.09-2.36c1.21-.56,2.61-1.11,2.61-1.87a1,1,0,0,0-.3-.61,2.41,2.41,0,0,0-2.12-.19,47.79,47.79,0,0,0-5.24,2.45,52.77,52.77,0,0,1-6.06,3.68c-3.3,1.63-4,1.32-4.31,1.06-.58-.51-.33-1.66-.23-2.1.36-1.67,1.8-2.46,2.59-3.68s5-4.29,6-5c2.46-1.79,3.65-2.78,4.54-3.34a36.82,36.82,0,0,1,5.48-2.78,55.44,55.44,0,0,1,13.42-4c11.88-1.79,21.71,1.72,27.24,3.69,3.08,1.1,6.14,2.53,7.7,3.26a37.08,37.08,0,0,1,7.07,3.92,23.8,23.8,0,0,1,4.07,3.73,19.3,19.3,0,0,1,4,6.64,18.54,18.54,0,0,1,.76,7A28.54,28.54,0,0,1,618,294.53a30.76,30.76,0,0,1-6.68,9.28,38,38,0,0,1-4.63,3.92c-7.87,5.73-16,10.44-17.41,11.28,0,0-9.92,5.75-20,10.48l-.34.16c-.48.23-1.37.65-2.46,1.21-1.61.82-2.94,1.55-3.9,2.09,2.57-.07,3.94-.12,4.13-.13,1.62-.75,4-1.86,6.8-3.23A261.78,261.78,0,0,0,597,317.1s18.86-11.54,22.92-20.45a37.53,37.53,0,0,0,1.93-5.44,38.4,38.4,0,0,0,1.21-7C623.32,281,623.53,278.47,622.61,275.48Z" transform="translate(-183 -65.08)"/><path d="M517,334.26" transform="translate(-183 -65.08)"/><path d="M586.65,352.54a27.85,27.85,0,0,1-5.86,3.91c-3.27,1.64-6.43,2.44-6.38,2.62s1.07.1.31.35c-.44.14-1.2.39-1.18.59.05.38,2.69.61,5.17,0a12.93,12.93,0,0,0,1.43-.46,15.39,15.39,0,0,0,3.45-1.8,51.3,51.3,0,0,0,6.2-5.06c-.51-.05-1-.09-1.6-.11Z" transform="translate(-183 -65.08)"/><path d="M586.65,352.54a9.14,9.14,0,0,1,.8-1.22c.48-.62.64-1.15.47-1.54s-.45-.57-1.36-.73a8.74,8.74,0,0,0-4.68.72,11.65,11.65,0,0,0-4.4,2.72c1.43,0,2.88.05,4.34.06C583.45,352.56,585.06,352.56,586.65,352.54Z" transform="translate(-183 -65.08)"/><path d="M603.84,351.32a2.18,2.18,0,0,0-1.08-1.12c-.83-.44-1.73-.54-4.88-.06a22.5,22.5,0,0,0-4.56,1.11,23.28,23.28,0,0,0-3.55,1.6l5.17.62,7.41.89C603.56,353.44,604.14,352.24,603.84,351.32Z" transform="translate(-183 -65.08)"/><path d="M590.63,352.39" transform="translate(-183 -65.08)"/><path d="M594.52,354.07" transform="translate(-183 -65.08)"/><path d="M607.24,363.24" transform="translate(-183 -65.08)"/><path d="M602.35,354.36a17.67,17.67,0,0,1-1.9,2.18,21.47,21.47,0,0,1-5.84,4,71,71,0,0,1-8.15,3.6,160.5,160.5,0,0,1-34.21,7.72,108.65,108.65,0,0,1-16.07.17c-7.15-.46-10.48-1.39-12.82-2.24a45.86,45.86,0,0,1-7.61-3.8,113.43,113.43,0,0,1-12.18-8.08,16,16,0,0,1-2.66-2.79c-.31-.42-.58-.82-.82-1.22l-1.64.08-1.63.08a14.82,14.82,0,0,0,1.37,2,15.82,15.82,0,0,0,1.14,1.24,29.52,29.52,0,0,1-4.57,2.69,33.27,33.27,0,0,1-9.17,2.71,34.39,34.39,0,0,1-8.69.64,20.76,20.76,0,0,1-6.35-1.23,12.46,12.46,0,0,1-4.74-3,11.07,11.07,0,0,1-1.34-1.79l-.85.15-1.1.15a11.88,11.88,0,0,0,1.48,2.2,12.58,12.58,0,0,0,3.54,2.76,19,19,0,0,0,6.63,2.06,31.33,31.33,0,0,0,7.55.13,46.07,46.07,0,0,0,7.33-1,38.1,38.1,0,0,0,7.36-2.29A35.17,35.17,0,0,0,501.2,359c.56.37,1.4.94,2.4,1.64,2.92,2,4.94,3.64,5.55,4.1a55.67,55.67,0,0,0,10.05,6.05,47.92,47.92,0,0,0,14.6,3.93,73.17,73.17,0,0,0,11.82.4,89.09,89.09,0,0,0,12.23-.81c7.08-1.11,12.25-2.39,22.52-5.39a79.73,79.73,0,0,0,14.48-5.53,25.55,25.55,0,0,0,7.65-5.73,23.92,23.92,0,0,0,2.2-2.87A18.88,18.88,0,0,1,602.35,354.36Z" transform="translate(-183 -65.08)"/><path d="M577.48,352.49a4,4,0,0,1-.59.95,4.69,4.69,0,0,1-1.93,1.27,13.52,13.52,0,0,1-2.84.89c-1.33.33-3.21.76-5.49,1.16-1.7.3-2.91.46-5.07.74s-4.22.55-7,.78c-2.58.22-4.43.3-5.19.33-1.24.05-2.15.06-2.46.06-1.61,0-2.9,0-3.89,0-1.45,0-4.58-.17-8.65-.66-5.3-.64-6.51-1.23-7.46-1.93a9.28,9.28,0,0,1-2.82-3.52l3.56,0a6.76,6.76,0,0,0,1.77,1.73,7.14,7.14,0,0,0,2.5,1,55.86,55.86,0,0,0,10,1s7.47,0,13-.38c1.21-.09,2.49-.21,2.49-.21l1.65-.16c1.45-.15,4.66-.53,8.88-1.12a22.22,22.22,0,0,0,4-.91,22.55,22.55,0,0,0,2.46-1l1.55,0Z" transform="translate(-183 -65.08)"/><path d="M659.26,337.57c-.77-1.59-3.49-1.56-9.19-1.71,0,0-3.77-.1-8.75-.31-1.92-.08-2.06-.17-8.47-.51-1.71-.09-9.44-.49-10.62-.63-4.66-.2-8.44-.35-10.87-.44-16.43-.61-30.37-1-42.56-1.11-.79,0-1.75,0-2,0-1.66.92-2.91,1.64-3.75,2.12,0,0-2.6,1.49-4.39,2.24l-.65.27c-2,.84-3,1.55-7,3.1-2.57,1-3.1,1.13-7.09,2.65-3.55,1.36-5.85,2.23-8.67,3.45-2.11.91-5,2.22-8.36,4l.24.58c.18.44.35.88.49,1.3,1.73,0,4.54,0,8,0,7,.05,11.61.1,17.32.13,4.4,0,6.64.05,9,0,5.19,0,9.43-.07,12.29-.13a23,23,0,0,1,6.2-4.37,13,13,0,0,1,4.22-1.29,7,7,0,0,1,3.7.42,2.76,2.76,0,0,1,1.42,1.07,2.82,2.82,0,0,1,.09,2.27l2.23-.61c.15,0,2.19-.58,3-.78a16.93,16.93,0,0,1,8.1-.25c1.63.41,2.23.89,2.54,1.45a3.18,3.18,0,0,1,.14,2.3,3.88,3.88,0,0,1-1.27,2l2.35.17c1.49.14,30.54,2.3,34.78,2.87,7.78,1,11.18,2.92,12.69,1.14.37-.44.37-.8.58-2.16,0,0,1-4.45,2.39-9.86a47,47,0,0,0,1.89-7.78A2.57,2.57,0,0,0,659.26,337.57Z" transform="translate(-183 -65.08)"/><path d="M564.37,332.77" transform="translate(-183 -65.08)"/><path d="M567.16,332.75" transform="translate(-183 -65.08)"/><path d="M565.47,333.28" transform="translate(-183 -65.08)"/><path d="M563.83,331.77" transform="translate(-183 -65.08)"/><path d="M563.83,331.77" transform="translate(-183 -65.08)"/><path d="M522.62,349.68l-.31-.46a41.1,41.1,0,0,0-4.36-4.93c-3-3-2.37-2.45-4-4,0,0-2.65-2.54-4.08-4.09-.32-.34-.65-.72-1-1.16s-.66-.79-.85-1l-3.39-.13c-1.62-.1-3.8-.2-6.38-.27l-2,0c-2.9,0-5,0-7.36,0-6.05.09-15.36.59-16,.62-.24.26-1.13,1.33-1.34,1.6-1.29,1.66-2.31,3.19-2.31,3.19a38.24,38.24,0,0,0-3,5.11,24.65,24.65,0,0,0-1.71,4.31,15.32,15.32,0,0,0-.71,5.65,13.39,13.39,0,0,0,.67,3.22l3.91-.55c4.18-.56,7.61-.91,12.22-1.32,1-.09,2.87-.26,6.85-.59l9.37-.76c-.31-.58-.66-1.2-1.07-1.83a30.27,30.27,0,0,0-3.16-3.54,31.34,31.34,0,0,0-3.86-2.68c-.14-.07-.74-.4-1.54-.89l-.29-.18c-1.22-.74-1.44-.74-1.64-1.06a1.14,1.14,0,0,1-.09-1.13c.21-.35.69-.39,1-.42a3.36,3.36,0,0,1,2.32.85c.77.47,1.81,1.15,3,2a35.8,35.8,0,0,1,3.21,2.44,27.73,27.73,0,0,1,2.86,2.89,18.1,18.1,0,0,1,1.5,1.9l1,1.48c4.24-.47,8.72-.85,13.43-1.1,3.65-.19,7.16-.27,10.54-.28A16.41,16.41,0,0,0,522.62,349.68Z" transform="translate(-183 -65.08)"/><path d="M507.44,330.05a24.84,24.84,0,0,0-5.37-3,29.45,29.45,0,0,0-12.18-2.67,22.46,22.46,0,0,0-10.84,2.28,23.72,23.72,0,0,0-5.76,4.38,28.9,28.9,0,0,0-2.87,3.32l1.35-.08,1.09-.05a21.86,21.86,0,0,1,2.69-3,19,19,0,0,1,5-3.54,19.9,19.9,0,0,1,9.27-1.77A26.52,26.52,0,0,1,497,327.3,24.3,24.3,0,0,1,508,334h3.51A22.6,22.6,0,0,0,507.44,330.05Z" transform="translate(-183 -65.08)"/><path d="M730.86,248a7,7,0,0,1-.19,1.63,24.22,24.22,0,0,1-1.61,4.81c-1.06,2.24-2.06,4-2.91,5.5a95.64,95.64,0,0,1-5.38,8.47c-.72,1-1.42,1.9-2.26,2.87s-1.64,1.81-2.27,2.43l-3.52-4c-.37-.39-1.94-2.43-2.76-3.42h0a39,39,0,0,1-3.13-4.07c-1.45-2.21-3.26-5.15-5.2-8.78-3.28-7.15-5.48-12.46-5.69-13.1-.28-.86-.55-1.76-.55-1.76-.4-1.33-.67-2.38-.86-3.08-3.47-13.07-3.76-13.86-4.85-18.59-.95-4.11-1.55-7.69-2-10.53s-.6-4.91-.71-6.11c-.31-3.37-.39-5.91-.48-8.53-.07-2.26-.17-5.31-.09-9.29,0-1.92.13-3.84.22-8,.05-2.15.08-3.23.06-3.9a83.75,83.75,0,0,0-.72-8.43c-.33-2.37-.71-4.41-1-6a19.37,19.37,0,0,0-3.08,1.1,20.62,20.62,0,0,0-3.18,1.83,69.25,69.25,0,0,0-6.84,5.47c-3.22,3-5.69,5.69-7.39,7.62-.92,1-2.91,3.6-7,8.63-2.36,2.89-3.29,4-4.59,5.93a55.25,55.25,0,0,0-4.22,7.35,51.46,51.46,0,0,0-2,4.85c-.89,2.86-1.5,5.2-1.88,6.71-2.19,8.75-2.41,13.36-4.84,24.23-.27,1.2-.51,2.18-.68,2.83a51.49,51.49,0,0,1-19.78.93,50,50,0,0,1-8.16-1.94,7.51,7.51,0,0,0,.17-1.67l2.68,1.14c2.63.56,4.88.88,6.58,1.07a45.37,45.37,0,0,0,9.4.29c1-.08,1.93-.19,2.53-.28,0,0,1.13-5.78,1.14-5.81,2.56-13,3.87-19.68,5.31-24.57a65.15,65.15,0,0,1,3.23-9.41c1.62-3.54,4.55-7.41,10.25-15.05.6-.8,2.73-3.68,5.65-7.31,2.16-2.7,3.24-3.92,3.68-4.41,2.27-2.55,4.14-4.34,4.84-5,1.23-1.16,2.7-2.48,4.41-3.88a47.57,47.57,0,0,1,3.89-3.06c1-.73,2.4-1.51,5.14-3.08,2.46-1.41,3.33-1.85,4.07-1.48s.83,1.06,1,1.95c.43,1.72,1.69,9,1.88,10.89.37,3.65.69,9.62.67,11.87,0,2,0,4.85,0,8.27a180.2,180.2,0,0,0,1.11,20c.17,1.35.91,7.34,2.65,15.13.27,1.23,1.1,4.38,2.74,10.64,2.45,9.35,2.58,10.12,3.35,12.45a95,95,0,0,0,4.14,10.46,61,61,0,0,0,4.43,8.2c1.38,2.1,2.76,3.89,3.67,5s1.73,2.06,2.39,2.78a18.35,18.35,0,0,0,1.63,2,19.82,19.82,0,0,0,1.64,1.52,67.64,67.64,0,0,0,6.62-8.91,69.15,69.15,0,0,0,4.23-8c-.09-.4-.23-1-.43-1.78a47.62,47.62,0,0,0-4.76-11.49,103,103,0,0,1-9-22.34c-.55-2.07-1.3-5.41-2.81-12.09-.63-2.79-1.07-4.82-1.56-7.44s-.77-4.45-1.22-7.35c-.86-5.6-1.39-9.85-1.55-11.17-.22-1.76-.56-4.6-.92-8.3-.6-6.32-.89-11.61-1-14.78-.2-4.52-.16-5.83-.25-7.72-.06-1.14-.13-2-.17-2.44-.72-8.52-.65-10.16-1.64-13-.8-2.23-1.47-4-3.27-5.12-.7-.42-1.85-.9-5.37-.76a35.45,35.45,0,0,0-8.34,1.35,40.29,40.29,0,0,0-10.62,5c-3.14,2.05-5,3.89-8.52,7.25-2.51,2.42-3.32,3.5-8.5,9l-5.77,6.08-.54-.39c1.51-6.13,3-11,4.16-14.35,1.38-4.09,2.09-5.74,6.44-17.3,2-5.25,1.51-4.11,4-10.82S670,100,672.34,93.26l2.93-8.4c2.49-4.6,2.23-6.56,1.49-7.5-1.16-1.47-3.21,0-7.54-1.33-3.88-1.17-5.63-3.35-7.71-2.43a3.67,3.67,0,0,0-1.62,1.58c-4.09,6.82-14.79,34.15-16.38,38.11-1.74,4.35-3.32,8.76-5,13.12-.48,1.25-7.49,22.55-8.23,25.23a3.22,3.22,0,0,1-.49.77l-.53-.12c.47-1.63,1.14-4,2-6.77,1.75-5.73,3.75-11.8,8.09-23.66,4.74-12.93,7.14-19.59,10.85-28.38,1.72-4.07,3.22-7.41,4.26-9.71A82.22,82.22,0,0,0,657.89,75a26.87,26.87,0,0,1,2.29-4.42,3.43,3.43,0,0,1,1.76-1.68c.9-.3,1.74,0,2.95.52,2,.81,2.93,1.23,4.33,1.94A16,16,0,0,0,676,73c2.52-.33,7.48-.73,8.62,1.5a1.78,1.78,0,0,1,.23,1.18c-1.25,3.57-9.86,26.22-11.33,30-1.12,2.87-2.09,5.8-3.18,8.69-1.21,3.21-2.14,5.68-4,10.62-1.44,3.74-2.81,7.26-5.5,14.15-.63,1.64-2,5.09-2.61,6.7l2.91-3,4.23-4.33c2.66-2.68,5-4.8,6.88-6.36a49.18,49.18,0,0,1,6.74-5.08,32,32,0,0,1,6.6-3.2,30.89,30.89,0,0,1,10.09-1.58,36.18,36.18,0,0,1,5.69.4,8.77,8.77,0,0,1,4.15,2.34c2.16,2.25,2.33,5.23,2.49,9,.34,8,.52,11.95.5,12.54-.18,5.34.13,10,.74,19.24.27,4.15.72,10.69,1.93,19.11.76,5.28,1.59,9.7,2,11.73.51,2.71,1.1,5.85,1.95,9.47a154.22,154.22,0,0,0,6.41,20.7c1.31,3.33,3.13,7.55,5.57,12.35.94,1.59,1.7,3,2.31,4.2C730.46,245.63,730.86,246.68,730.86,248Z" transform="translate(-183 -65.08)"/><path d="M413.86,336.47l1.49-3.51c.07-.17.27-.57.47-1.13a11.85,11.85,0,0,0,.48-1.71c0-.41,0-.53-.11-.56-.64-.26-3.54,5.35-4.08,6.52s-1.35,2.72-2.19,5c-.07.18-.13.34-.16.45l1.1-.13.49-.05.26,0,.12,0h0S412.38,339.91,413.86,336.47Z" transform="translate(-183 -65.08)"/><path d="M442.59,270.17,447,292.32m-9.86-26.69" transform="translate(-183 -65.08)"/><path d="M539.91,242.68a2.38,2.38,0,0,0-.19-.5,2.82,2.82,0,0,0-2-1.22l-1.7-.25a9.33,9.33,0,0,0-1.49-.18h0a39.76,39.76,0,0,0-5.13-.14h0a38.51,38.51,0,0,0-4.57.54c-1.72.29-2.81.51-2.81.51-4.3.86-7.89,1.72-7.89,1.72-3.18.79-6.37,1.57-9.52,2.48-3.5,1-6.19,2.6-11.12,3.4l-.58.09a27.77,27.77,0,0,1,2.36-3c.59-.66,3.23-3.33,4.31-4.29l4.82-5.22a47.14,47.14,0,0,0,4.69-5.13c.41-.55,1.23-1.7.84-2.53a1.58,1.58,0,0,0-.81-.72,3.25,3.25,0,0,0-2.06-.07c-.66.11-.84.17-1.58.33l-1.12.24c-.52.11-1.31.29-2.5.62a5.81,5.81,0,0,0,1.24-2.41,2.18,2.18,0,0,0-.12-1.76c-1-1.33-5.06.19-5.92.53l-.11,0c-4.56,1.85-9.26,3.74-12.08,5.07a67.91,67.91,0,0,0-13.06,8.44c-3.29,2.52-5.6,4.64-7.9,6.74-4,3.65-7.15,6.94-9.46,9.45-2.09,2.53-4.21,5.08-6.39,7.64q-2.93,3.45-5.83,6.79c-.24-.35-.68-1-1.21-1.88-1.47-2.4-3.69-6.5-5.51-8.49a4,4,0,0,0-1.52-1c-.46-.17-1.11-.41-1.57-.08a1.71,1.71,0,0,0-.48,1.61c.05.74.1,1.48.16,2.21q-2.62-3.72-5.23-7.45a10.18,10.18,0,0,0-4.39-4.53c-1.27-.64-1.74-.44-1.94-.33-.63.38-.85,1.56-.34,2.8-.53-.43-1.26-.89-1.8-.65-1.35.57-.72,5-.46,6.74a34.84,34.84,0,0,0,1.9,7.2c.65,1.76.95,2.38,1.75,4.39,1.08,2.74,1.12,2.88,1.57,3.84,1.35,2.83,2.81,5.44,5.62,10.45.58,1,1.06,1.89,1.38,2.45-.8,1.12-1.91,2.68-3.2,4.58a181.46,181.46,0,0,0-9.26,16.23c-2.37,4.77-7.5,15-8.45,17.24-1.13,2.64-2.09,5.36-3.13,8-.85,2.22-1.27,3.34-1.52,4s-1.24,3.46-2.41,7.53c-1.29,4.49-1.44,5.81-.94,7.13a4.83,4.83,0,0,0,2.18,2.56,1,1,0,0,0,.65.09c.58-.1,4.11-9.31,4.35-9.92.66-1.7,1.05-2.51,1.2-2.82l.14-.27-.32.07-4.19.86c.38-1.55,1.05-4.13,2.06-7.27,2.75-8.56,5-11.86,15.14-31.35a129.81,129.81,0,0,1,7.27-12.43c.69-1,1.28-1.9,1.68-2.48.66.71,1.73,1.86,3,3.29,1.76,1.92,2.38,2.63,3.59,3.93.8.86,2,2.14,3.55,3.71-1.29,2.33-3.25,5.8-5.73,10-2.59,4.41-2.41,3.76-3.76,6.32S426,327.67,425,329.64l-.21.41c-1.45,3-2,4.49-3,6.81-.36.79-.9,1.95-1.63,3.35l-3.92.5c-1.27.15-4,.52-4.5.57-.08.19-1.16,2.93-1.61,4.15-1.48,4.05-2.39,5.8-3.71,9.28-.48,1.23-1.13,3-1.82,5.24a4,4,0,0,0,1.73,4.13,4.19,4.19,0,0,0,3.72.24,8.86,8.86,0,0,0,2.26-1.94,10.52,10.52,0,0,0,1.68-3.23c.9-2.36,9.46-22.45,10.26-24,.91-1.82,1.77-3.67,2.78-5.44,3.63-6.37,5.46-9.86,12.08-21.47.72-1.26,1.9-3.33,3.37-5.93l.82-1.16a11.47,11.47,0,0,0,1.08,1.13c1.32,1.21,2.75,2,5.93,3.08a35.94,35.94,0,0,0,7.95,2.11,28.25,28.25,0,0,0,10.33-.71c1.1-.29,2.7-.87,5.88-2,1.34-.49,3.18-1.17,5.43-2.08.32-.13,3.79-1.56,7.74-3.46a178,178,0,0,0,18.91-10.76,113.94,113.94,0,0,0,12.87-9.68,104,104,0,0,0,16.08-18.77,38.08,38.08,0,0,0,3.71-9.72A32,32,0,0,0,539.91,242.68Zm-96.36,29.11c1.1-1.41,7.18-9.2,11.62-14.47,1.46-1.73,2.57-3,3.31-3.81,1.52-1.69,3-3.22,4.7-5a69.33,69.33,0,0,1,5.87-5.24,73.31,73.31,0,0,1,9.49-7.22,64.49,64.49,0,0,1,6.4-3.38c3.67-1.77,6.85-3,9.21-3.91A27.78,27.78,0,0,1,499,227c.69-.18,1.46-.34,1.64-.06,0,.08.14.32-.92,1.75a15.48,15.48,0,0,1-1.23,1.52c-1.88,1.83-3.92,3.51-5.9,5.25a9.72,9.72,0,0,0-1.84,1.71,2,2,0,0,0,0,1.77c.47.73,1,.24,1.6-.21,3-2.34,6-4.74,9.15-6.89a16.29,16.29,0,0,1,4.44-1.66c1-.3,1.26.13,1.34.28s-.1.69-.39,1.12c-.45.65-5.12,5.6-7.33,7.81s-1.88,1.77-3.09,3.08c-2.62,2.82-6.25,6.25-6.94,6.9-1.1,1-.62.59-8.27,7.15-3.72,3.18-5.57,4.77-6.76,5.94,0,0-2,2-4.2,3.93-1.83,1.64-2,1.61-4.59,3.94-.77.69-1.68,1.52-2.67,2.47-.76.71-2.45,2.33-4.49,4.5-1.63,1.74-3.61,4-5.77,6.67a37.2,37.2,0,0,1-2.93-2.74,30.56,30.56,0,0,1-3.87-4.85A30.07,30.07,0,0,1,443.55,271.79ZM488.76,263c4.74-1.56,9.53-3.12,16.18-4.72,2.82-.67,5.23-1.18,7-1.53a12.17,12.17,0,0,1,5.56,0,2.11,2.11,0,0,1,1.38.92,2.48,2.48,0,0,1,0,1.86,6.42,6.42,0,0,1-.95,2.09,11.84,11.84,0,0,1-1.13,1.47,14.76,14.76,0,0,1-1.41,1.39c-5.54,4.77-8.93,7.14-8.93,7.14-4.9,3.27-8.74,5.64-9.68,6.18a96.24,96.24,0,0,1-17.39,8.36c-7.59,2.65-12.31,4.25-17.88,2.62a19.06,19.06,0,0,1-6.83-3.71c.36-.53,1-1.46,1.74-2.4.34-.43.66-.81.7-.86l.9-1a90.74,90.74,0,0,1,6.29-6.66,33.42,33.42,0,0,1,5.66-3.72l.1-.05.12-.06C477.07,266.84,488.76,263,488.76,263Zm49-20.29a32.74,32.74,0,0,1-.77,6.72,34,34,0,0,1-6.15,13.21,67.69,67.69,0,0,1-7.33,9.11c-1.66,1.75-3.51,3.46-3.51,3.46-2.3,2.13-4.11,3.56-6,5-3.31,2.59-5.85,4.3-9.32,6.65s-5.31,3.58-7.65,4.88c-1.79,1-.94.54-6.49,3.26l-7.58,3.72s-5.84,2.72-9.88,4.17c-4.27,1.53-8.2,3.32-12.93,2.75a34.88,34.88,0,0,1-17.82-8.11,46.36,46.36,0,0,1-6.83-7.44A87,87,0,0,1,425,272.84c-1.61-3.48-2.73-6.48-3.47-8.6-.47-1.4-2.28-6.88-2.16-8.33,0-.21.07-.75.37-.87s.53.09.75.26a11.61,11.61,0,0,1,2.29,2.53,38.63,38.63,0,0,1,2.41,3.29c.63,1,1.14,1.85,2.12,2.09.37.09,1,.13,1.13-.14s-.48-1-1.54-2.35a36.34,36.34,0,0,1-2.16-3.24,25.27,25.27,0,0,1-1.71-3.36c-.37-.7-.78-1.52-.65-1.61s.65.46,2.06,2.07c0,0,3.89,5,5.58,7.54a30,30,0,0,0,2.2,3.4c.65.89,1.27,1.66,2,2.7.23.33.79.42,1.19.63.17-.43.49-.87.45-1.28,0-.1,0-.2,0-.3a3.45,3.45,0,0,0-.56-1.22,8.87,8.87,0,0,1-1-2.08,8.23,8.23,0,0,1-.51-2.18,1.17,1.17,0,0,1,.79-.64c.88-.08,1.71,1.81,2.1,2.69,1.16,2.6,2.67,5,3.84,7.62,0,0,3.63,8,8.89,13.18.63.63,1.28,1.19,1.28,1.19a28.74,28.74,0,0,0,3.28,2.39,31.79,31.79,0,0,0,4.22,2.41,24.31,24.31,0,0,0,2.93,1.15c4.27,1.28,8.55,0,12.17-1.16l.38-.12c.5-.17.86-.32.94-.35,1.39-.57,9.89-3.52,17.24-7a106,106,0,0,0,14.94-8.84c1.66-1.16,4.49-3.44,10.13-8,.2-.17.84-.73,1.63-1.53a11.24,11.24,0,0,0,2.58-3.91,6.16,6.16,0,0,0,.49-2.62,4.22,4.22,0,0,0-.62-2.26c-.78-1.08-2.33-1.27-4.38-1.28a36.54,36.54,0,0,0-7.68.77c-5.21,1.18-7.82,1.76-9.05,2.12-4.27,1.22-8.19,2.51-13.92,4.56-3.72,1.34-8.51,3.11-14.1,5.3.57-.65,1.42-1.61,2.52-2.7a64.86,64.86,0,0,1,7.76-6.45,61.27,61.27,0,0,1,6.27-4.39,52.47,52.47,0,0,1,5.62-2.81,57.63,57.63,0,0,1,5.92-2.15c2.58-.8,9-2.71,21.29-5.5a41.48,41.48,0,0,1,7.43-1.08c.35,0,1.71-.08,3.54,0A50.38,50.38,0,0,1,537.71,242.72Z" transform="translate(-183 -65.08)"/><path d="M459.5,284.81" transform="translate(-183 -65.08)"/><path d="M544.94,242.28" transform="translate(-183 -65.08)"/><path d="M454.22,255.39" transform="translate(-183 -65.08)"/><path d="M405.42,341" transform="translate(-183 -65.08)"/><path d="M427.51,164.05a4.27,4.27,0,0,1,1.54-1.16,9.18,9.18,0,0,1,1.7-.34h0c5.88,0,12.05-3.16,12.05-3.16a47.52,47.52,0,0,0,8.5-4,29.87,29.87,0,0,0,8.8-7.5,31.34,31.34,0,0,0,3.89-7.08c1.53-3.46,2.86-6.4,3.25-10.54A20.31,20.31,0,0,0,466,120a14,14,0,0,0-3.35-5,22.75,22.75,0,0,0-2.5-1.86,15.36,15.36,0,0,0-1.77-1,14.62,14.62,0,0,0-4.1-1.15,31.44,31.44,0,0,0-6.57-.51A44.9,44.9,0,0,0,437.49,112c-5.51,1.46-7.86,2.9-10.76,4.07-1.79.72-3.49,1.66-5.22,2.5-.69.33-1.8-.45-1.84-1.42a11.41,11.41,0,0,1,.15-3.57,6,6,0,0,1,2-2.38,26.55,26.55,0,0,1,8.84-4,63.11,63.11,0,0,1,18.75-2.73,36,36,0,0,1,8.24.88,20.91,20.91,0,0,1,5.73,2.07,16.62,16.62,0,0,1,5.05,4.17,16.92,16.92,0,0,1,2.95,5.68,24.35,24.35,0,0,1,.5,12.24,33.42,33.42,0,0,1-1.94,6.66,34.28,34.28,0,0,1-4.54,8.73,36.21,36.21,0,0,1-4,4.54,44.31,44.31,0,0,1-7.38,5.82l-.47.28c-4,2.31-7.32,3.59-12.63,5.78s-6,2.6-6.32,3.65c-.2.63.24,2.28,1.13,5.55.76,2.78,1.06,3.49,1.75,4.24a5.72,5.72,0,0,0,3.17,1.76,5.37,5.37,0,0,0,2.32-.17c3.83-1.05,7.72-1.93,11.53-3.05a54.3,54.3,0,0,0,8.24-3c2.57-1.4,7.35-4,9.33-9.16a20.37,20.37,0,0,0,1.13-6.68,21.08,21.08,0,0,0-.15-3.12c-.06-.59-.13-.72-.16-1.18a7.38,7.38,0,0,1,.27-2.93c.71-1.45,3.22-.57,7.15-1.54a42.9,42.9,0,0,0,6.64-2.72c2.82-1.28,4.53-2.23,5.46-1.5.36.28.48.79.71,1.82a12.31,12.31,0,0,1,.26,3.28c0,2.18-.09,3.27-.19,4.21a76.5,76.5,0,0,1-1.59,9.4,70,70,0,0,1-2.14,7.17,57.65,57.65,0,0,1-3.66,8.48,45.18,45.18,0,0,1-6.07,8.82A45.65,45.65,0,0,1,472,191.5c-2,1.44-3.59,2.4-5.55,3.57a67.28,67.28,0,0,1-7.53,4,51.67,51.67,0,0,1-10.63,3.45,47.12,47.12,0,0,1-7.27.89l.29-1.14c1.53-.25,2.78-.49,3.67-.68l2.87-.65,3.17-.74a50,50,0,0,0,11.95-6,59.56,59.56,0,0,0,7.31-6,56.69,56.69,0,0,0,7-7.31c3.45-4.49,5-8.49,7.09-14.12a81.6,81.6,0,0,0,3.36-12.07c.1-.54.23-1.2.37-2.53.07-.77.1-1.36.13-1.85s.09-1.4-.3-1.69-1.49.25-2.25.68a32.26,32.26,0,0,1-7.66,2.8c-2.14.56-2.85.47-3.44,1.26-.42.56-.54.81-.54,3.58a29.54,29.54,0,0,1-.75,4.32c-.08.3-.29,1-.5,1.66-.1.3-.25.75-.48,1.33a26.46,26.46,0,0,1-2.41,4.64c-1.74,2.56-3.92,4.11-8.27,7.23-.56.4-1.05.75-1.75,1.22a59.87,59.87,0,0,1-8.48,4.46c-8.08,3.79-10.18,3.92-11.25,3.91a17.19,17.19,0,0,1-6.23-1.37,7.48,7.48,0,0,1-1.9-1.16c-1.9-1.62-2.41-3.81-2.85-5.57-.65-2.68-1.43-5.68-2.48-9.57A4.88,4.88,0,0,1,427.51,164.05Z" transform="translate(-183 -65.08)"/><path d="M527.84,139.68a60.64,60.64,0,0,0-5.46-3.52s-2.19-1.1-4.77-2.75c-5-3.17-5.72-5.13-7.83-4.84-1.69.23-2.83,1.55-4,2.92a15.84,15.84,0,0,0-3.41,6.6,83.28,83.28,0,0,0-2.45,13.45s-2.24,19.75-.25,25.18a5,5,0,0,0,.94,1.55,11.32,11.32,0,0,0,3,1.39,13,13,0,0,0,8-.71c2.43-.83,4.76-2.46,9.4-5.71a28.76,28.76,0,0,0,2.61-2.1c1.6-1.44,2.52-2.29,3.13-3.68a11.22,11.22,0,0,0,.64-3.33c.11-1,.15-1.63.16-2.14,0-1.31,0-2.3,0-2.57,0-1.19,0-3.22.19-6.93.08-1.89.25-3.43.39-4.5a35.4,35.4,0,0,1,.68-5.25,2.83,2.83,0,0,0,.2-1.56A2.51,2.51,0,0,0,527.84,139.68Zm-1.73,18.83c-.21,1.24-.3,2.78-1.06,3.6a91.44,91.44,0,0,1-8,7.53,25.92,25.92,0,0,1-5.12,3,52.29,52.29,0,0,1-5,2,1.24,1.24,0,0,1-1.06.05,1.15,1.15,0,0,1-.5-.83c-1.63-7.37-.91-18-.91-18a76.37,76.37,0,0,1,.91-9.07c.11-.59.2-1.06.39-2a39.21,39.21,0,0,1,1.54-6.14,29,29,0,0,1,2.24-4.26,3.89,3.89,0,0,1,1.48-1.58,3.54,3.54,0,0,1,1.87-.4l2.29,1.09c1.93.93,3.5,1.74,4.64,2.34.51.27,1.42.74,2.55,1.42a38.22,38.22,0,0,1,3.21,2.17,4.3,4.3,0,0,1,1.72,2.17c.28.91-.06,1.57-.15,2.67-.16,2-.33,4-.39,6,0,.14-.24,3.77-.27,4C526.34,155.62,526.36,157.09,526.11,158.51Z" transform="translate(-183 -65.08)"/><line class="cls-1" x1="345.06" y1="85.5" x2="345.21" y2="85.2"/><path d="M403.72,225c-2.07,1.34-13.47,9.4-14.48,9.59-1.52.29-3.06-.22-6-2.13a47.6,47.6,0,0,1-9.23-8.16c-1.61-1.83-3.14-3.84-3.39-4.16,0,0-1.25-1.65-2.25-3.11-4.47-6.53-7.13-16.7-7.76-19.11-2-7.44-1.54-8.62-4.17-19.7-.93-3.9-1.78-7.09-2.35-9.19-1.27.8-3.33,2.07-5.94,3.52-3.67,2-5.2,2.67-7.67,4.54-2.82,2.13-4.4,3.42-4.77,5.34a21.69,21.69,0,0,0-.66,4c0,1.53-.92,2.33-2.42,2.7-2.27.57-4.46,1.54-6.75,1.94-4.18.73-8.41,1.15-12.55-.29a12.47,12.47,0,0,1-2.07-1.22l.15-.45a4,4,0,0,1,1.2,0c3.09,1,6.22.66,9.34.3,2-.24,2.57-.92,3-2.95s1.06-4,1.61-6.06c.67-2.47,2.57-3.81,4.62-5,4.21-2.51,8.39-5.09,12.64-7.53,3.35-1.94,6.79-3.72,10.19-5.56a44.77,44.77,0,0,1,1.51,4.69s1.19,5.12,1.33,6L361,193.58c.95,2.84,1.29,5.24,2.18,8A63.48,63.48,0,0,0,366,209.2a55.34,55.34,0,0,0,8,12.47c1.28,1.56,2.33,2.67,2.77,3.13l.66.68c.25.24,2.26,2.24,4.34,3.9,3.1,2.46,4.64,3.69,6.06,3.76,1,.05,1.4-.26,6.35-3.38,4.3-2.71,5.89-3.66,5.75-4.83a2.19,2.19,0,0,0-1.14-1.42,52,52,0,0,1-8.13-8.62,42.5,42.5,0,0,1-2.79-4.17,73.64,73.64,0,0,1-3.36-6.78c-1.44-3.38-2.88-6.78-4-10.28-1-3.25-1.7-6.63-2.45-10-.33-1.47-.84-3.87-1.38-7-.16-.91-.27-1.63-.37-2.29,0,0-.56-3.57-1-7,0,0-4-34.5-5.49-37.09a3,3,0,0,0-.74-.84,3.11,3.11,0,0,0-1.71-.47c-2.37,0-7.31,3-7.95,3.33l-.05,0-1.17.71c-1.21.75-6.21,4.15-7.84,5.39-.63.48-1.1.86-1.32,1-1.08.88-1.85,1.56-2.07,1.76,0,0-.64.58-1.2,1.12a44.54,44.54,0,0,0-3.39,3.71,50.51,50.51,0,0,0-4.09,5.82,2.17,2.17,0,0,1-1.09,1.26c-.2.09-.94.43-1.45,0a1.3,1.3,0,0,1-.34-1.13c.53-1.79,1.15-3.92,1.83-6.32.8-2.84,6.82-25,7.21-26.44a2.11,2.11,0,0,0-.05-1.89,1.94,1.94,0,0,0-1.68-.43,71.32,71.32,0,0,0-7.78.41c-3.38.36-5.32.81-6.08-.23-.43-.6-.28-1.68,0-3.84a2.75,2.75,0,0,1,.54-1.54,2.69,2.69,0,0,1,2-.91c3.43-.18,13.85-.25,15.88.26,1.6.4,2.4.6,3,1.24,1.31,1.35.94,3.7-.38,8.89-1.5,5.92-3,10.61-3.21,11.36-.68,2.36-2.47,8.77-2.79,9.11,3.14-2.28,11.48-8.27,19.64-13.24,1.7-1,4.6-2.75,7.37-1.79a4.83,4.83,0,0,1,3.75,3.72c1.21,4.13,3,18.56,3.35,21.18.58,4.19,1,6.92,2,12.62,1.26,7.6,2.18,13.55,3.13,17.71,1.08,4.8,1.88,7.31,2.17,8.22a87.59,87.59,0,0,0,4.14,10.33c2.17,4.59,3.78,8,6.73,11.57a29.76,29.76,0,0,0,3.82,4.15c2.15,1.84,2.64,2.84,4,3.67S405.15,224.05,403.72,225Z" transform="translate(-183 -65.08)"/><path d="M553.37,197.46a50,50,0,0,0-4.75,5c-.59.72-.89,1.13-2,2.51-1.33,1.62-1.68,2-2.37,2.8l-.74.88c-1.71,2.06-2.56,3.09-3.11,3.4a5.09,5.09,0,0,1-3.14.58,4.64,4.64,0,0,1-1.82-.66,6.18,6.18,0,0,1-2.24-3.33c-1.31-3.34-1.85-5.27-1.85-5.27-.45-1.59-1-3.65-1.61-6.09-1.61.76-3.85,1.75-6.59,2.76A57.21,57.21,0,0,1,512,203.27c-4.14.68-9.75,1.59-16-.82a26.9,26.9,0,0,1-7.65-4.64,27.82,27.82,0,0,1-5.39-6.22c-1.61-2.6-2.18-4.13-1.71-4.57.2-.2.62-.18,1.25.06a25.72,25.72,0,0,0,4.86,7.66c1.74,1.88,4.08,4.43,7.81,5.63,3.55,1.15,6.47.48,11.36-.65a58.64,58.64,0,0,0,11.81-4.57,42.3,42.3,0,0,0,6.39-3.84c1.25-.92,2.8-2.17,3.84-1.65a1.68,1.68,0,0,1,.73,1c.61,1.38,1.77,9.09,2.4,11.62a48,48,0,0,0,1.5,4.79,9.88,9.88,0,0,0,1.64,3.27c.43.51,1.78,2,3.16,1.8a2.39,2.39,0,0,0,.46-.1,4,4,0,0,0,1.67-1.37c1.88-2.23,2.82-3.34,3.33-4,.85-1.18,1.54-2.19,2.92-4.2.9-1.32,1.35-2,1.38-2.06.74-1.92-.7-3.31-2.84-8.64-.27-.7-1-2.54-1.74-5-.06-.18-.62-2-1.13-4.11a88.83,88.83,0,0,1-2.22-16.21,82.77,82.77,0,0,1,.26-8.7c.35-4.53.83-6.3,1.52-13.65.17-1.78.25-2.8.4-4.84.49-6.5.42-7.8.33-8.67a21.64,21.64,0,0,0-1.49-6.29,20.65,20.65,0,0,0-6.64-8.42l-.84-.37a8.65,8.65,0,0,1-.69,2.86,9.06,9.06,0,0,1-3.06,3.77,26,26,0,0,0-19.49-10.93,25.71,25.71,0,0,0-20.28,7.59,30.12,30.12,0,0,0-3.73,4.73,37.36,37.36,0,0,0-3.95,7A29,29,0,0,0,480,140.92l-.85-.11a41.09,41.09,0,0,1,2.45-13,45,45,0,0,1,3.34-7.11c.35-.62.66-1.18,1.06-1.82,0,0,.23-.37.48-.75a35.06,35.06,0,0,1,7-8.18,21.92,21.92,0,0,1,7.54-3.6,25.82,25.82,0,0,1,7-.88,30.34,30.34,0,0,1,7.2.74,27.19,27.19,0,0,1,4.14,1.32,25,25,0,0,1,3.84,2,29.52,29.52,0,0,1,4,3.32c1,.89,2.23,2.12,3.67,3.65.19-1,.28-1.87.34-2.46.09-1,.06-1.42.37-1.89a2.44,2.44,0,0,1,1.65-1,2.76,2.76,0,0,1,1.73.46,38,38,0,0,1,10.39,9.57,22.76,22.76,0,0,1,2.3,3.69,19.87,19.87,0,0,1,1.59,5.27c.4,2.29.64,5.25-.07,12.34-.29,2.87-.48,3.93-.91,7.26-.59,4.59-1,8.69-1.31,12.18a64.92,64.92,0,0,0,0,8.33,54.12,54.12,0,0,0,.76,6.31c.33,1.86.66,3.3,1,4.66s.67,2.78,1.24,4.61a32.94,32.94,0,0,0,1.27,3.65c1.27,2.9,2.27,3.61,2.41,5.53A6.56,6.56,0,0,1,553.37,197.46Z" transform="translate(-183 -65.08)"/><path d="M452.06,127.68c-1.79.45-3.6.81-5.35,1.35s-3.52,1.37-5.31,2a21.19,21.19,0,0,0-10.48,7.43,8.39,8.39,0,0,0-1.58,2.64,24.4,24.4,0,0,0-.54,4.61c-.11,2.29.88,2.92,3,1.94s3.9-2,5.94-2.82c6.58-2.58,12.22-5.87,14.78-9a12.73,12.73,0,0,0,2-3.6,8.75,8.75,0,0,0,.32-1.18,9.7,9.7,0,0,0,.08-1.58,2.5,2.5,0,0,0-1.53-1.75A1.68,1.68,0,0,0,452.06,127.68Zm-6.58,7.83c-2.21,1.15-3,1.83-5.66,3-1.44.66-2.45.94-3.06.74,1.52-1.33,2.89-2.71,4.44-3.84,2.33-1.7,4.75-3.29,7.21-4.8a8.29,8.29,0,0,1,3.49-1.36h1a2.68,2.68,0,0,1,1.19.13,1.07,1.07,0,0,1,.35.23c.13.17.21.41.12,1a4.75,4.75,0,0,1-.35,1.25C453.51,133.28,449.31,133.52,445.48,135.51Z" transform="translate(-183 -65.08)"/><path d="M186.29,173.39v0Zm0-.82h0a0,0,0,0,1,0,0Z" transform="translate(-183 -65.08)"/><path d="M186.31,172.59a.68.68,0,0,0,0,.14v0a.15.15,0,0,0,0-.07S186.31,172.6,186.31,172.59Z" transform="translate(-183 -65.08)"/><path d="M186.31,172.59a.68.68,0,0,0,0,.14v0a.15.15,0,0,0,0-.07S186.31,172.6,186.31,172.59Z" transform="translate(-183 -65.08)"/><path d="M186.32,172.57a0,0,0,0,0,0,0h0Z" transform="translate(-183 -65.08)"/><polygon points="3.3 108.25 3.3 108.34 3.29 108.31 3.3 108.25"/><path d="M549.9,161l-.16-.07a1.48,1.48,0,0,1-.48-.51.47.47,0,0,0-.06-.09A4.1,4.1,0,0,0,549.9,161Z" transform="translate(-183 -65.08)"/><path d="M550.67,160.32l-1.64-.24.21-.34a4.74,4.74,0,0,1,1.1.37Z" transform="translate(-183 -65.08)"/><path d="M618,202.7c-.71,2.42-1.31,4.48-2,6.85C615.45,207.7,616.55,203.78,618,202.7Z" transform="translate(-183 -65.08)"/><path d="M350.44,138.47l-1.34,1c.44-.36.88-.71,1.32-1Z" transform="translate(-183 -65.08)"/><path d="M316.49,75.28h0v0Z" transform="translate(-183 -65.08)"/><path class="cls-1" d="M612.81,220.92q1.8-7.12,3.58-14.23" transform="translate(-183 -65.08)"/><path d="M325.56,111.86A142.62,142.62,0,0,0,324,94.47c-.47-2.73-1-5.18-1.17-5.83-.39-1.7-.79-3.47-1.48-5.73-.05-.14-1-2.85-2.47-6.39-.6-1.44-1.68-3.89-3.25-4h-.16c-.45,0-1.19.4-3.39,2.54-1.31,1.27-1.77,1.8-1.77,1.8-1,1-7,8.77-10.24,10.61-1.71,1-5.8,4-10.21,4.41a10,10,0,0,0-2.23.94c-.9,1.49.2,5.11.2,5.11A106.25,106.25,0,0,1,289,109.14c.12,2.52.13,4.7.07,8.61-.06,4.2-.21,10-.55,17h0a305,305,0,0,1-4.4,32.92,107.9,107.9,0,0,1-2.82,12.4,62.61,62.61,0,0,1-5.91,14.15c-2.59,4.37-6.55,11.07-14.53,15.54-8.64,4.85-18,4.82-20.9,2.68a40.5,40.5,0,0,1-3.3-2.79c-1.17-1.11-2.06-2.09-2.65-2.77a39.35,39.35,0,0,1-3.94-5.72c-3.48-6.31-4.62-12.31-5.67-18.07a107.11,107.11,0,0,1-1.52-13.78,130.31,130.31,0,0,1-.09-13.7,101.81,101.81,0,0,1,1-11.18c.56-3.66,3.6-17.21,4-18.63,1-3.32,4.3-14.16,5-16.23a207.68,207.68,0,0,1,8.92-19.21c1.55-2.39.17-5.14-2.63-5.9a116.19,116.19,0,0,1-11.23-6.63,36,36,0,0,1-10.3-11.63c-.42-.77-2.77-1.4-3.46-1-2.56,1.45-4.27,3.77-6.19,5.88a52.17,52.17,0,0,0-4.42,5.32c-1.91,2.77-3.71,5.63-5.35,8.57-1.35,2.42-2.31,4.51-4.27,8.68a105.88,105.88,0,0,0-4.4,10.26c-.26.74-.89,2.55-1.57,4.92-.83,2.87-1.33,5.14-1.73,6.94s-.69,3.33-1,4.8c-.72,3.8-1.35,7.13-1.72,10.8-.18,1.77-.34,4-.41,5.33-.1,1.64-.12,2.85-.14,4.07-.06,3.55,0,6.7.13,9.18a140.56,140.56,0,0,0,1.27,15c.69,4.86,1.21,7.24,1.67,9.32,1,4.27,1.93,7.51,2.33,8.79a138.92,138.92,0,0,0,7,17.19,58,58,0,0,0,3.58,6.45c.27.42.5.76.64,1a27.9,27.9,0,0,0,2.61,3.45,49.14,49.14,0,0,0,6,6.54,53.29,53.29,0,0,0,11.71,8,58.68,58.68,0,0,0,9.76,3.76,71,71,0,0,0,12.91,2.71,56.79,56.79,0,0,0,8.34.17h.18c1.11-.09,2.29-.23,2.48-.25,2.25-.27,4.09-.62,5.72-.94a65.27,65.27,0,0,0,11.25-2.92,59.82,59.82,0,0,0,7.82-3.58,49.34,49.34,0,0,0,6.47-4c.22-.16,1.27-.93,2.6-2.05.33-.27,1.79-1.5,3.74-3.41,2.45-2.39,4.65-5,4.77-5.11s2.53-3.13,4.12-5.43a96.78,96.78,0,0,0,6.72-11.47,137.26,137.26,0,0,0,7-16.09c.62-1.7,1.29-3.78,2.64-7.94,1.82-5.63,2.93-9.05,4.08-13.34,1.32-4.91,2.14-8.86,2.53-10.86a124,124,0,0,0,2.73-25.23C325.83,117.66,325.74,115.73,325.56,111.86Zm-9.08-36.59h0ZM186.3,173.42v0Zm0-.69v0a.15.15,0,0,0,0-.07s0,0,0,0A.68.68,0,0,0,186.29,172.73Zm0-.15h0A0,0,0,0,0,186.31,172.58Zm132.17-33.45c-.22,1.62-.78,5.43-1.8,10.26-.49,2.32-1.19,5.62-2.44,9.83-1,3.29-1,3-2.87,8.61-1.9,5.87-1.91,6.49-3.12,9.68-.84,2.22-1.57,3.91-3.13,7.26-1.67,3.58-3.41,7.14-5.19,10.68-1.41,2.8-2.14,4.18-3.09,5.78a73,73,0,0,1-4.71,7c-5.73,7.36-12.68,11.62-16.39,13.89a52.2,52.2,0,0,1-8.93,4.48,58.32,58.32,0,0,1-6.35,1.92,73.81,73.81,0,0,1-8.12,1.55,46.46,46.46,0,0,1-7.28.58c-.79,0-1.53,0-2.23-.08a42.17,42.17,0,0,1-5.21-.68,54.48,54.48,0,0,1-5.32-1.3,62,62,0,0,1-6-2.08,47.28,47.28,0,0,1-6.79-3.32,48.78,48.78,0,0,1-6-4.27c-1.85-1.49-3.18-2.73-4.05-3.55a49.57,49.57,0,0,1-3.95-4c-.18-.2-.78-.9-1.56-1.89a83.55,83.55,0,0,1-5.73-8.37c-.72-1.23-2.6-5.46-6.31-13.88a82.46,82.46,0,0,1-3.61-9.85c-.2-.67-.32-1.2-.43-1.62a95.22,95.22,0,0,1-2-10.51c-.33-2.36-1-7.67-1.34-14.5-.19-4.13-.17-7-.16-7.79,0-3.74.23-6.58.3-7.43a109.44,109.44,0,0,1,1.53-12c.42-2.25.81-3.92,1.2-5.61.79-3.43,1.35-5.87,2.36-9a88.6,88.6,0,0,1,3.47-9c.63-1.45,1.19-2.64,2.35-5.06,2.82-5.85,4-8.9,6.4-12.8,2.21-3.64,5.1-6.87,7.69-10.28,1.15-1.51,2.16-1.37,3.27.16a64.68,64.68,0,0,0,5.57,7,67.89,67.89,0,0,0,6.29,5.26c.82.66,3,1.33,4.49,3.43a7.28,7.28,0,0,1,.71,1.14c.8,1.71-.12,3.6-.62,4.67-1.59,3.4-5.19,10.56-7.51,17.08-1.06,3-3.63,10.89-3.85,11.86-.58,2.57-1.14,5.15-1.66,7.74-.57,2.76-2.87,17.07-2.89,21.24,0,2.09-.25,4.18-.29,6.27,0,2.56-.14,5.62.06,9.48s.59,6.79.87,8.8a113.55,113.55,0,0,0,2.64,13.31c.93,3.56,1.75,5.94,2,6.71.58,1.64,1.18,3.35,2.12,5.4a44.19,44.19,0,0,0,3.06,5.6,29.37,29.37,0,0,0,4.88,6.26,20.84,20.84,0,0,0,4.1,3,20.55,20.55,0,0,0,4.89,1.79c6.6,1.5,13.18-1,15.73-2a39.77,39.77,0,0,0,8.3-4.5,42.7,42.7,0,0,0,9.74-8.72c.72-.9,1.36-1.74,1.93-2.54,0,0,1.46-2.06,2.78-4.35,5.63-9.76,8.2-22.05,8.2-22.05.32-1.48,1-5.34,2.33-13.07l.33-1.91c1-5.83,1.59-10.81,2-14.64.66-6.25.92-11.07,1.18-15.88.3-5.57.45-8.36.46-11.84a137.29,137.29,0,0,0-1.29-19.14,19.36,19.36,0,0,0,9.94-1.46c2.59-1.16,4.29-2.72,6.78-5,5.86-5.41,6.94-8.71,8.66-8.38,1.56.31,2.38,3.39,3.29,11.44,1,8.76,1.22,15.87,1.31,21.21A183.48,183.48,0,0,1,318.48,139.13Z" transform="translate(-183 -65.08)"/><path d="M480.14,138.62" transform="translate(-183 -65.08)"/><path d="M416.43,337.58" transform="translate(-183 -65.08)"/><path d="M468.51,357.71" transform="translate(-183 -65.08)"/><path d="M460.72,335.56" transform="translate(-183 -65.08)"/><path d="M475.91,333.5" transform="translate(-183 -65.08)"/><path d="M547.92,365" transform="translate(-183 -65.08)"/><path d="M585.14,353.4" transform="translate(-183 -65.08)"/><path d="M586.06,352.5" transform="translate(-183 -65.08)"/><path d="M587.16,353.79" transform="translate(-183 -65.08)"/><path d="M606.21,355.24" transform="translate(-183 -65.08)"/><path d="M603.3,355.65" transform="translate(-183 -65.08)"/><path d="M590.59,288.59" transform="translate(-183 -65.08)"/><path d="M591,288" transform="translate(-183 -65.08)"/><path d="M592.06,291.87" transform="translate(-183 -65.08)"/><path d="M592.12,290.48" transform="translate(-183 -65.08)"/><path d="M515.94,338.87l1-3" transform="translate(-183 -65.08)"/><path d="M611.93,230.49c0-4,1.16-7.93,2.33-11.76.19-.62-.77-.88-1-.26-1.2,3.91-2.38,7.89-2.37,12a.5.5,0,0,0,1,0Z" transform="translate(-183 -65.08)"/><path d="M619.45,194.29c-1.57,5.68-3.2,11.34-4.61,17.05-.7,2.82-1.36,5.65-2,8.49-.14.63.83.9,1,.27,1.76-8.35,4.09-16.55,6.35-24.77l.21-.77a.5.5,0,0,0-1-.27Z" transform="translate(-183 -65.08)"/><path class="cls-2" d="M614.89,215.38" transform="translate(-183 -65.08)"/><path d="M186.47,174" transform="translate(-183 -65.08)"/><path d="M240.09,87.33" transform="translate(-183 -65.08)"/><path d="M316.49,75.28h0v0Z" transform="translate(-183 -65.08)"/><path class="cls-1" d="M315.15,74.38a.32.32,0,0,1,.33.07.05.05,0,0,1,0,0" transform="translate(-183 -65.08)"/><path d="M317,79a2.21,2.21,0,0,0,0-.25h0A2,2,0,0,1,317,79Z" transform="translate(-183 -65.08)"/><path d="M317.84,77.82l-.2,0c0-.15-.05-.31-.07-.46Z" transform="translate(-183 -65.08)"/><path d="M317.9,77.94l-.06-.12h.05l0,.09" transform="translate(-183 -65.08)"/><path d="M389.67,126.89" transform="translate(-183 -65.08)"/><path d="M446.32,211.55c.1,1-.54,1.9-1.55,2.82a45.93,45.93,0,0,1-8.41,6.36c-.84.46-2.07,1.1-3.6,1.77a59.14,59.14,0,0,1-8.73,3c-2.6.74-4.77,1.24-9.11,2.26-.83.2-4.21,1-8.84,2l-6.6,1.39c-.47-.19-1-.44-1-.66s1-.33,2.23-.5,2.28-.47,3.43-.69c1.54-.29,9.11-1.8,18.24-4.4,7.44-2.11,11.32-3.63,14.09-7a5.18,5.18,0,0,0,1.47-3.09c.16-3-3.54-4-6.62-8.56-3.31-4.85-3.07-8.58-4.86-8.78-1.36-.15-1.87,1.7-5.66,5.85a56.14,56.14,0,0,1-7.58,6.94c-2.14,1.7-4,3-5.49,4-.2.13-3.26,2.14-4.61,1.8a2.41,2.41,0,0,1-.49-.19,7.75,7.75,0,0,1-1.33-1.81,8.29,8.29,0,0,1-.85-4.36A516.84,516.84,0,0,1,411,129.08q2.37-17.1,4.75-34.21.54-2.84,1.06-5.68c0-1-.07-2.36-.92-2.89a2.26,2.26,0,0,0-1.75-.1c-2.31.57-7.75,0-11.86-.92a41.31,41.31,0,0,1-4.5-1.56c-1.27-.43-2.12,0-2.31,1.24-.49,3.4-2.69,22.85-2.77,23.21q-2.25,16.24-4.49,32.49c-.78,5.64-1.22,10.15-1.78,16.31-.9,10.05-1.35,15.07-1.42,17.85,0,1.41-.11,5.19-.4,5.2s-.77-3.79-.77-3.87,0,0,0,.06q.81-10.56,1.9-21.49c.62-6.19.92-9.12,1.25-11.9.73-6,1.28-9.34,2.09-14.84,1.38-9.33,2.29-16.6,4.1-31.14.66-5.35,1.2-9.8,1.57-12.94,0,0,.34-3.49.62-6.06a1.88,1.88,0,0,1,.3-.87,2.38,2.38,0,0,1,.34-.36c1.81-1.57,5.65,2.63,11.19,3.57,6.88,1.17,12-3.43,13.56-1.37.3.39.2,1.9,0,4.92-.15,2.13-.29,3.18-.37,4.45C419.66,100,407.74,189.06,406,200.1a92.86,92.86,0,0,0-.81,9.39c-.05,1.46-.06,2.83.67,3.2.45.22,1.05,0,3.86-1.95a57.72,57.72,0,0,0,4.8-3.65c.33-.3.9-.88,2.05-2.05.54-.56,1.92-1.95,2.73-2.81a93.7,93.7,0,0,0,6.29-7.44,5.41,5.41,0,0,1,2.3-2.13,4.11,4.11,0,0,1,2.27-.12c2.81.62,3.3,4.24,7.66,10a21.22,21.22,0,0,0,3.3,3.74c.8.68,1.72,1.36,3.23,2.76S446.26,211,446.32,211.55Z" transform="translate(-183 -65.08)"/><path d="M608.45,181.61c-.88.54-1.45.87-1.89,1.11-.67.37-1.17.63-1.27.68a65.54,65.54,0,0,0-6.2,4c-.3.22,0,0-8.73,5.58-3.24,2.07-9.32,5.75-16.64,10-2.85,1.64-11.26,6.43-18,7.28a7.93,7.93,0,0,1-5.47-1.05c-.38-.26-3.08-1.88-2-3.13.67-.79.72-2.55,2.53-2a16,16,0,0,0,3.18.74,9.28,9.28,0,0,0,2.85-.19,30.42,30.42,0,0,0,7.09-2.28c1.9-.83,3.3-1.59,5.08-2.55,1.51-.82,1.52-.87,4.41-2.47,2.16-1.2,3.4-1.85,4-2.16,1.57-.82,2.72-1.39,3-1.52,3.47-1.8,4.41-2.73,11.45-7.48,4-2.69,7.65-5.85,11.65-8.5,1.17-.78,4.35-2.85,4.24-5.46a1.09,1.09,0,0,0,0-.2c-.37-2.4-8.14-2.84-17.15-3.72,0,0-8.54-.84-19.56-2.43-6.82-1-12.33-2.11-15.89-2.9L549,161.7c0-.83.06-1.26.23-1.3s.28.14.48.51l.16.07a4.1,4.1,0,0,1-.7-.67,2,2,0,0,1-.17-.23l1.24.63q12.53,2.43,26.24,4.42c11.49,1.63,22.5,2.81,33,3.64a2.54,2.54,0,0,1,.52,0l.48.11h0a4.53,4.53,0,0,1,2.19.94c.12.1.21.19.26.24A6.26,6.26,0,0,1,614.4,173a8.55,8.55,0,0,1,.21,3.21C614.47,177,613.92,178.23,608.45,181.61Z" transform="translate(-183 -65.08)"/><path d="M549.9,161l-.16-.07a1.48,1.48,0,0,1-.48-.51.47.47,0,0,0-.06-.09A4.1,4.1,0,0,0,549.9,161Z" transform="translate(-183 -65.08)"/><path d="M609.43,168.81" transform="translate(-183 -65.08)"/><path d="M559.76,134.4a7.52,7.52,0,0,0-1.09,4.74c3.41,1.44,5.31,2.13,6.43,2.48.75.24,1.62.51,2.9,1a21.81,21.81,0,0,0,3.4,1.16,87,87,0,0,0,8.74,1.84c4.43.69,8.89,1.27,13.35,1.72,3.82.39,10.14.93,16.09,1.32,1.68.11,3.35.3,5,.43,5.12.38,6.17.32,7.65,1.08a9.37,9.37,0,0,1,4.08,4.33,65.55,65.55,0,0,1,3.12,8.8,43.82,43.82,0,0,1,1.24,4.47c.41,1.75.66,3.24.83,4.35.11,1.62.23,3.24.35,4.86-.49,4.62-2.12,7-3,8.08a38.3,38.3,0,0,1-5.91,5.55h0a97.94,97.94,0,0,1-11.08,7.46l-2.44,1.31-11.76,6.25c-11.24,6-22.38,12.21-34,17.36A70.06,70.06,0,0,1,556,226c-5.24,1.66-7.46,1.49-8.21,1.42a13.89,13.89,0,0,1-5.54-1.77,16,16,0,0,1-1.75-1.21c-1.3-1-2.12-1.89-5.06-4.23-2-1.6-3.85-3-3.7-4.41a2.49,2.49,0,0,1,.16-.67c.73-.78,1.48-1.53,2.27-2.25l1.17,1.1c1.36,1.6,3.34,3.81,5.92,6.3,3.54,3.43,4.7,4,5.34,4.24,2.81,1.14,5.35.57,9.4-.39,3.16-.74,6.29-2.09,12.56-4.81,13.58-5.89,38.42-19.6,42.49-22,.57-.33,2.15-1.22,4.14-2.57a54.33,54.33,0,0,0,7-5.72c1.94-1.81,2.87-2.78,3.41-3.89a9.36,9.36,0,0,0,.89-4.11c.16-5.73-2.18-14.45-2.57-15.91l-1.71-6a5.49,5.49,0,0,0-1-1.43c-1.31-1.31-3-1.57-6.15-1.89s-3.76-.29-6.89-.58c-2.7-.25-3.17-.36-5.43-.52-1.69-.12-19.19-1.19-26.13-2.93a64.81,64.81,0,0,1-7.6-2.16c-2.91-1.13-5.67-2.63-8.47-4a9.3,9.3,0,0,1-3.3-7.35,8.64,8.64,0,0,1,2.12-5,12.06,12.06,0,0,1,2.23-1.94,19.35,19.35,0,0,1,4.16-2.27,60,60,0,0,1,6.06-2c3-.75,5.32-1.15,7.39-1.51s4.76-.76,7.85-1.08c1.47-.16,3.94-.34,4.46-.37,1.61-.1,5.2-.24,6.64-.24,1.28,0,2.54,0,5.05.09,1.95.05,5,.35,5.85.46s1.41.2,2.35.37c1.46.27,2.59.54,3.14.69,1.18.3,2,.51,3,.88l1.52.47a4.24,4.24,0,0,0,1.9.31c.58-.12.86-.51,2.38-2.84.89-1.37,1.35-2.07,1.67-2.6.9-1.49.8-1.39,1.3-2.19s.89-1.41,1.43-2.21a1.66,1.66,0,0,0,.49-1.1,1.44,1.44,0,0,0-.58-.88,22.81,22.81,0,0,0-6.43-3.22c-1.13-.35-2.92-.9-5.21-1.64a63.48,63.48,0,0,0-12.25-2.53c-1.25-.13-2-.22-2.83-.26a76.94,76.94,0,0,0-13.6.48,93.29,93.29,0,0,0-13.94,2.29c-6.45,1.65-11.24,3.75-17.63,6.55-3.16,1.38-5.73,2.61-7.45,3.46-.6-.65-1.4-1.5-2.16-2.37a1.61,1.61,0,0,1-.5-1.21,1.79,1.79,0,0,1,.87-1.17c1.77-1.25,6.11-3.48,6.5-3.68,2.26-1,5.21-2.26,8.71-3.56A108.33,108.33,0,0,1,572.39,105a85.28,85.28,0,0,1,15.81-2.8,77.73,77.73,0,0,1,12.2,0,62.47,62.47,0,0,1,8.25,1.14c2.19.45,4.94,1.12,10.41,2.65a71,71,0,0,1,11.46,4.13,11.81,11.81,0,0,1,4,3,6.32,6.32,0,0,1,1.88,3.74c.07,1.31-.59,2.35-1.9,4.43-.44.69-.86,1.3-1.27,1.84-.76,1-1,1.1-2.23,2.58-1.61,1.88-1.56,2-2.09,2.29a8.6,8.6,0,0,1-2.82.65,5.68,5.68,0,0,1-1,.07c-1,0-1.9-.37-4-.7l-2-.57s-.71-.25-2.36-.72c-2.42-.68-3.63-1-4.84-1.3a56,56,0,0,0-10.52-.94c-1.39,0-2.46,0-3.16,0-.42,0-1.77,0-3.51.09-3.18.19-5.89.45-8,.68-2.33.26-4.67.52-7.76,1.1a83.3,83.3,0,0,0-10.51,2.68,19.35,19.35,0,0,0-4.49,1.89,15.54,15.54,0,0,0-2.31,1.62A10,10,0,0,0,559.76,134.4Z" transform="translate(-183 -65.08)"/><path class="cls-3" d="M668,200.9" transform="translate(-183 -65.08)"/><path class="cls-3" d="M713.35,270.12" transform="translate(-183 -65.08)"/><path d="M467.3,358.65" transform="translate(-183 -65.08)"/><path d="M462.68,387.18" transform="translate(-183 -65.08)"/><path d="M517.25,343.07" transform="translate(-183 -65.08)"/><path d="M508.63,334.33" transform="translate(-183 -65.08)"/><path d="M525.07,359" transform="translate(-183 -65.08)"/><path d="M524.93,357.35" transform="translate(-183 -65.08)"/><path d="M544.28,358.61" transform="translate(-183 -65.08)"/><path d="M569.73,352.68" transform="translate(-183 -65.08)"/><path d="M588.15,360" transform="translate(-183 -65.08)"/><path d="M581.73,360.26" transform="translate(-183 -65.08)"/><path d="M584.25,360.59" transform="translate(-183 -65.08)"/><path d="M590.34,353.55" transform="translate(-183 -65.08)"/></svg>